<svg width="982" height="603" viewBox="0 0 982 603" fill="none" xmlns="http://www.w3.org/2000/svg">
<path d="M100.832 172.229H168.537V247.954H185.952V205.08H272.04V272.966H283.431V113.665H358.247V157.395H396.597V211.786H408.211V177.583H476.218V279.683H496.119V196.674H558.326V133.637H600.617V97.7222H649.547V256.974H665.992V190.524H746.582V285.641H757.737V207.999H839.466V138.051H881.168V406.772H100.832V172.229Z" fill="#EBEBEB"/>
<path d="M120.59 181.756H109.133V196.228H120.59V181.756Z" fill="white"/>
<path d="M140.452 181.756H128.996V196.228H140.452V181.756Z" fill="white"/>
<path d="M160.302 181.756H148.845V196.228H160.302V181.756Z" fill="white"/>
<path d="M120.59 203.537H109.133V218.009H120.59V203.537Z" fill="white"/>
<path d="M140.452 203.537H128.996V218.009H140.452V203.537Z" fill="white"/>
<path d="M160.302 203.537H148.845V218.009H160.302V203.537Z" fill="white"/>
<path d="M120.59 225.317H109.133V239.789H120.59V225.317Z" fill="white"/>
<path d="M140.452 225.317H128.996V239.789H140.452V225.317Z" fill="white"/>
<path d="M160.302 225.317H148.845V239.789H160.302V225.317Z" fill="white"/>
<path d="M120.59 247.097H109.133V261.569H120.59V247.097Z" fill="white"/>
<path d="M140.452 247.097H128.996V261.569H140.452V247.097Z" fill="white"/>
<path d="M160.302 247.097H148.845V261.569H160.302V247.097Z" fill="white"/>
<path d="M517.134 207.022H505.678V219.094H517.134V207.022Z" fill="white"/>
<path d="M536.984 207.022H525.527V219.094H536.984V207.022Z" fill="white"/>
<path d="M556.833 207.022H545.377V219.094H556.833V207.022Z" fill="white"/>
<path d="M517.134 225.196H505.678V237.268H517.134V225.196Z" fill="white"/>
<path d="M536.984 225.196H525.527V237.268H536.984V225.196Z" fill="white"/>
<path d="M556.833 225.196H545.377V237.268H556.833V225.196Z" fill="white"/>
<path d="M517.134 243.371H505.678V255.443H517.134V243.371Z" fill="white"/>
<path d="M536.984 243.371H525.527V255.443H536.984V243.371Z" fill="white"/>
<path d="M556.833 243.371H545.377V255.443H556.833V243.371Z" fill="white"/>
<path d="M517.134 261.533H505.678V273.605H517.134V261.533Z" fill="white"/>
<path d="M536.984 261.533H525.527V273.605H536.984V261.533Z" fill="white"/>
<path d="M556.833 261.533H545.377V273.605H556.833V261.533Z" fill="white"/>
<path d="M517.134 280.166H505.678V292.238H517.134V280.166Z" fill="white"/>
<path d="M536.984 280.166H525.527V292.238H536.984V280.166Z" fill="white"/>
<path d="M556.833 280.166H545.377V292.238H556.833V280.166Z" fill="white"/>
<path d="M517.134 298.786H505.678V310.859H517.134V298.786Z" fill="white"/>
<path d="M536.984 298.786H525.527V310.859H536.984V298.786Z" fill="white"/>
<path d="M556.833 298.786H545.377V310.859H556.833V298.786Z" fill="white"/>
<path d="M517.134 317.407H505.678V329.479H517.134V317.407Z" fill="white"/>
<path d="M536.984 317.407H525.527V329.479H536.984V317.407Z" fill="white"/>
<path d="M556.833 317.407H545.377V329.479H556.833V317.407Z" fill="white"/>
<path d="M517.134 336.028H505.678V348.1H517.134V336.028Z" fill="white"/>
<path d="M536.984 336.028H525.527V348.1H536.984V336.028Z" fill="white"/>
<path d="M556.833 336.028H545.377V348.1H556.833V336.028Z" fill="white"/>
<path d="M261.67 214.366H195.732V223.424H261.67V214.366Z" fill="white"/>
<path d="M261.67 231.938H195.732V240.995H261.67V231.938Z" fill="white"/>
<path d="M261.67 249.509H195.732V258.566H261.67V249.509Z" fill="white"/>
<path d="M261.67 267.069H195.732V276.126H261.67V267.069Z" fill="white"/>
<path d="M261.67 284.64H195.732V293.697H261.67V284.64Z" fill="white"/>
<path d="M261.67 302.212H195.732V311.269H261.67V302.212Z" fill="white"/>
<path d="M261.67 319.783H195.732V328.84H261.67V319.783Z" fill="white"/>
<path d="M261.67 337.342H195.732V346.399H261.67V337.342Z" fill="white"/>
<path d="M736.356 198.966H675.734V208.023H736.356V198.966Z" fill="white"/>
<path d="M736.356 216.537H675.734V225.594H736.356V216.537Z" fill="white"/>
<path d="M736.356 234.097H675.734V243.154H736.356V234.097Z" fill="white"/>
<path d="M736.356 251.668H675.734V260.725H736.356V251.668Z" fill="white"/>
<path d="M736.356 269.24H675.734V278.297H736.356V269.24Z" fill="white"/>
<path d="M736.356 286.799H675.734V295.856H736.356V286.799Z" fill="white"/>
<path d="M736.356 304.37H675.734V313.427H736.356V304.37Z" fill="white"/>
<path d="M736.356 321.942H675.734V330.999H736.356V321.942Z" fill="white"/>
<path d="M736.356 338.633H675.734V347.69H736.356V338.633Z" fill="white"/>
<path d="M736.356 355.324H675.734V364.381H736.356V355.324Z" fill="white"/>
<path d="M736.356 372.015H675.734V381.072H736.356V372.015Z" fill="white"/>
<path d="M736.356 388.718H675.734V397.775H736.356V388.718Z" fill="white"/>
<path d="M834.386 220.179H770.346V229.236H834.386V220.179Z" fill="white"/>
<path d="M834.386 237.751H770.346V246.808H834.386V237.751Z" fill="white"/>
<path d="M834.386 255.322H770.346V264.379H834.386V255.322Z" fill="white"/>
<path d="M834.386 272.894H770.346V281.951H834.386V272.894Z" fill="white"/>
<path d="M834.386 290.453H770.346V299.51H834.386V290.453Z" fill="white"/>
<path d="M834.386 308.024H770.346V317.081H834.386V308.024Z" fill="white"/>
<path d="M834.386 325.596H770.346V334.653H834.386V325.596Z" fill="white"/>
<path d="M834.386 343.155H770.346V352.212H834.386V343.155Z" fill="white"/>
<path d="M834.386 358.881H770.346V367.939H834.386V358.881Z" fill="white"/>
<path d="M834.386 374.608H770.346V383.665H834.386V374.608Z" fill="white"/>
<path d="M834.386 390.334H770.346V399.391H834.386V390.334Z" fill="white"/>
<path d="M448.473 185.772H428.113V194.516H448.473V185.772Z" fill="white"/>
<path d="M448.473 202.741H428.113V211.484H448.473V202.741Z" fill="white"/>
<path d="M448.473 219.709H428.113V228.452H448.473V219.709Z" fill="white"/>
<path d="M448.473 236.677H428.113V245.421H448.473V236.677Z" fill="white"/>
<path d="M448.473 253.634H428.113V262.377H448.473V253.634Z" fill="white"/>
<path d="M448.473 270.602H428.113V279.346H448.473V270.602Z" fill="white"/>
<path d="M448.473 287.571H428.113V296.314H448.473V287.571Z" fill="white"/>
<path d="M448.473 304.539H428.113V313.283H448.473V304.539Z" fill="white"/>
<path d="M476.178 185.772H455.818V194.516H476.178V185.772Z" fill="white"/>
<path d="M476.178 202.741H455.818V211.484H476.178V202.741Z" fill="white"/>
<path d="M476.178 219.709H455.818V228.452H476.178V219.709Z" fill="white"/>
<path d="M476.178 236.677H455.818V245.421H476.178V236.677Z" fill="white"/>
<path d="M476.178 253.634H455.818V262.377H476.178V253.634Z" fill="white"/>
<path d="M476.178 270.602H455.818V279.346H476.178V270.602Z" fill="white"/>
<path d="M476.178 287.571H455.818V296.314H476.178V287.571Z" fill="white"/>
<path d="M476.178 304.539H455.818V313.283H476.178V304.539Z" fill="white"/>
<path d="M315.995 122.831H294.783V136.616H315.995V122.831Z" fill="white"/>
<path d="M347.615 122.831H326.404V136.616H347.615V122.831Z" fill="white"/>
<path d="M315.995 143.092H294.783V156.876H315.995V143.092Z" fill="white"/>
<path d="M347.615 143.092H326.404V156.876H347.615V143.092Z" fill="white"/>
<path d="M315.995 163.341H294.783V177.125H315.995V163.341Z" fill="white"/>
<path d="M347.615 163.341H326.404V177.125H347.615V163.341Z" fill="white"/>
<path d="M315.995 183.601H294.783V197.386H315.995V183.601Z" fill="white"/>
<path d="M347.615 183.601H326.404V197.386H347.615V183.601Z" fill="white"/>
<path d="M315.995 203.862H294.783V217.647H315.995V203.862Z" fill="white"/>
<path d="M347.615 203.862H326.404V217.647H347.615V203.862Z" fill="white"/>
<path d="M315.995 224.111H294.783V237.896H315.995V224.111Z" fill="white"/>
<path d="M347.615 224.111H326.404V237.896H347.615V224.111Z" fill="white"/>
<path d="M315.995 244.372H294.783V258.156H315.995V244.372Z" fill="white"/>
<path d="M347.615 244.372H326.404V258.156H347.615V244.372Z" fill="white"/>
<path d="M315.995 264.62H294.783V278.405H315.995V264.62Z" fill="white"/>
<path d="M347.615 264.62H326.404V278.405H347.615V264.62Z" fill="white"/>
<path d="M386.816 163.341H365.605V177.125H386.816V163.341Z" fill="white"/>
<path d="M386.816 183.601H365.605V197.386H386.816V183.601Z" fill="white"/>
<path d="M386.816 203.862H365.605V217.647H386.816V203.862Z" fill="white"/>
<path d="M386.816 224.111H365.605V237.896H386.816V224.111Z" fill="white"/>
<path d="M386.816 244.372H365.605V258.156H386.816V244.372Z" fill="white"/>
<path d="M386.816 264.62H365.605V278.405H386.816V264.62Z" fill="white"/>
<path d="M315.995 284.64H294.783V298.425H315.995V284.64Z" fill="white"/>
<path d="M347.615 284.64H326.404V298.425H347.615V284.64Z" fill="white"/>
<path d="M386.816 284.64H365.605V298.425H386.816V284.64Z" fill="white"/>
<path d="M315.995 304.66H294.783V318.444H315.995V304.66Z" fill="white"/>
<path d="M347.615 304.66H326.404V318.444H347.615V304.66Z" fill="white"/>
<path d="M386.816 304.66H365.605V318.444H386.816V304.66Z" fill="white"/>
<path d="M315.995 324.667H294.783V338.452H315.995V324.667Z" fill="white"/>
<path d="M347.615 324.667H326.404V338.452H347.615V324.667Z" fill="white"/>
<path d="M386.816 324.667H365.605V338.452H386.816V324.667Z" fill="white"/>
<path d="M315.995 344.687H294.783V358.471H315.995V344.687Z" fill="white"/>
<path d="M347.615 344.687H326.404V358.471H347.615V344.687Z" fill="white"/>
<path d="M386.816 344.687H365.605V358.471H386.816V344.687Z" fill="white"/>
<path d="M315.995 364.694H294.783V378.479H315.995V364.694Z" fill="white"/>
<path d="M347.615 364.694H326.404V378.479H347.615V364.694Z" fill="white"/>
<path d="M386.816 364.694H365.605V378.479H386.816V364.694Z" fill="white"/>
<path d="M578.424 142.513H566.968V154.585H578.424V142.513Z" fill="white"/>
<path d="M598.274 142.513H586.817V154.585H598.274V142.513Z" fill="white"/>
<path d="M578.424 160.687H566.968V172.759H578.424V160.687Z" fill="white"/>
<path d="M598.274 160.687H586.817V172.759H598.274V160.687Z" fill="white"/>
<path d="M578.424 178.862H566.968V190.934H578.424V178.862Z" fill="white"/>
<path d="M598.274 178.862H586.817V190.934H598.274V178.862Z" fill="white"/>
<path d="M578.424 197.036H566.968V209.108H578.424V197.036Z" fill="white"/>
<path d="M598.274 197.036H586.817V209.108H598.274V197.036Z" fill="white"/>
<path d="M578.424 215.657H566.968V227.729H578.424V215.657Z" fill="white"/>
<path d="M598.274 215.657H586.817V227.729H598.274V215.657Z" fill="white"/>
<path d="M578.424 234.277H566.968V246.35H578.424V234.277Z" fill="white"/>
<path d="M598.274 234.277H586.817V246.35H598.274V234.277Z" fill="white"/>
<path d="M578.424 252.898H566.968V264.97H578.424V252.898Z" fill="white"/>
<path d="M598.274 252.898H586.817V264.97H598.274V252.898Z" fill="white"/>
<path d="M578.424 271.519H566.968V283.591H578.424V271.519Z" fill="white"/>
<path d="M598.274 271.519H586.817V283.591H598.274V271.519Z" fill="white"/>
<path d="M578.424 290.344H566.968V302.417H578.424V290.344Z" fill="white"/>
<path d="M598.274 290.344H586.817V302.417H598.274V290.344Z" fill="white"/>
<path d="M578.424 309.17H566.968V321.242H578.424V309.17Z" fill="white"/>
<path d="M598.274 309.17H586.817V321.242H598.274V309.17Z" fill="white"/>
<path d="M578.424 327.984H566.968V340.056H578.424V327.984Z" fill="white"/>
<path d="M598.274 327.984H586.817V340.056H598.274V327.984Z" fill="white"/>
<path d="M578.424 346.809H566.968V358.881H578.424V346.809Z" fill="white"/>
<path d="M598.274 346.809H586.817V358.881H598.274V346.809Z" fill="white"/>
<path d="M858.098 144.479H846.641V158.71H858.098V144.479Z" fill="white"/>
<path d="M877.947 144.479H866.491V158.71H877.947V144.479Z" fill="white"/>
<path d="M858.098 165.885H846.641V180.116H858.098V165.885Z" fill="white"/>
<path d="M877.947 165.885H866.491V180.116H877.947V165.885Z" fill="white"/>
<path d="M858.098 187.304H846.641V201.535H858.098V187.304Z" fill="white"/>
<path d="M877.947 187.304H866.491V201.535H877.947V187.304Z" fill="white"/>
<path d="M858.098 208.71H846.641V222.941H858.098V208.71Z" fill="white"/>
<path d="M877.947 208.71H866.491V222.941H877.947V208.71Z" fill="white"/>
<path d="M858.098 230.647H846.641V244.878H858.098V230.647Z" fill="white"/>
<path d="M877.947 230.647H866.491V244.878H877.947V230.647Z" fill="white"/>
<path d="M858.098 252.585H846.641V266.815H858.098V252.585Z" fill="white"/>
<path d="M877.947 252.585H866.491V266.815H877.947V252.585Z" fill="white"/>
<path d="M858.098 274.522H846.641V288.753H858.098V274.522Z" fill="white"/>
<path d="M877.947 274.522H866.491V288.753H877.947V274.522Z" fill="white"/>
<path d="M858.098 296.471H846.641V310.702H858.098V296.471Z" fill="white"/>
<path d="M877.947 296.471H866.491V310.702H877.947V296.471Z" fill="white"/>
<path d="M858.098 318.637H846.641V332.868H858.098V318.637Z" fill="white"/>
<path d="M877.947 318.637H866.491V332.868H877.947V318.637Z" fill="white"/>
<path d="M858.098 340.816H846.641V355.046H858.098V340.816Z" fill="white"/>
<path d="M877.947 340.816H866.491V355.046H877.947V340.816Z" fill="white"/>
<path d="M858.098 362.982H846.641V377.213H858.098V362.982Z" fill="white"/>
<path d="M877.947 362.982H866.491V377.213H877.947V362.982Z" fill="white"/>
<path d="M858.098 385.16H846.641V399.391H858.098V385.16Z" fill="white"/>
<path d="M877.947 385.16H866.491V399.391H877.947V385.16Z" fill="white"/>
<path d="M620.873 142.513H609.416V154.585H620.873V142.513Z" fill="white"/>
<path d="M640.722 142.513H629.266V154.585H640.722V142.513Z" fill="white"/>
<path d="M620.873 123.88H609.416V135.952H620.873V123.88Z" fill="white"/>
<path d="M640.722 123.88H629.266V135.952H640.722V123.88Z" fill="white"/>
<path d="M620.873 105.248H609.416V117.32H620.873V105.248Z" fill="white"/>
<path d="M640.722 105.248H629.266V117.32H640.722V105.248Z" fill="white"/>
<path d="M620.873 160.687H609.416V172.759H620.873V160.687Z" fill="white"/>
<path d="M640.722 160.687H629.266V172.759H640.722V160.687Z" fill="white"/>
<path d="M620.873 178.862H609.416V190.934H620.873V178.862Z" fill="white"/>
<path d="M640.722 178.862H629.266V190.934H640.722V178.862Z" fill="white"/>
<path d="M620.873 197.036H609.416V209.108H620.873V197.036Z" fill="white"/>
<path d="M640.722 197.036H629.266V209.108H640.722V197.036Z" fill="white"/>
<path d="M620.873 215.657H609.416V227.729H620.873V215.657Z" fill="white"/>
<path d="M640.722 215.657H629.266V227.729H640.722V215.657Z" fill="white"/>
<path d="M620.873 234.277H609.416V246.35H620.873V234.277Z" fill="white"/>
<path d="M640.722 234.277H629.266V246.35H640.722V234.277Z" fill="white"/>
<path d="M620.873 252.898H609.416V264.97H620.873V252.898Z" fill="white"/>
<path d="M640.722 252.898H629.266V264.97H640.722V252.898Z" fill="white"/>
<path d="M620.873 271.519H609.416V283.591H620.873V271.519Z" fill="white"/>
<path d="M640.722 271.519H629.266V283.591H640.722V271.519Z" fill="white"/>
<path d="M620.873 290.344H609.416V302.417H620.873V290.344Z" fill="white"/>
<path d="M640.722 290.344H629.266V302.417H640.722V290.344Z" fill="white"/>
<path d="M620.873 309.17H609.416V321.242H620.873V309.17Z" fill="white"/>
<path d="M640.722 309.17H629.266V321.242H640.722V309.17Z" fill="white"/>
<path d="M620.873 327.984H609.416V340.056H620.873V327.984Z" fill="white"/>
<path d="M640.722 327.984H629.266V340.056H640.722V327.984Z" fill="white"/>
<path d="M620.873 346.809H609.416V358.881H620.873V346.809Z" fill="white"/>
<path d="M640.722 346.809H629.266V358.881H640.722V346.809Z" fill="white"/>
<path d="M240.629 159.518L125.932 159.361C125.932 159.361 131.64 152.523 137.925 151.679C137.925 151.679 150.207 118.164 170.659 117.911C189.696 117.718 197.29 138.569 197.29 138.569C197.29 138.569 206.128 129.235 214.547 133.528C222.966 137.822 227.706 150.062 227.706 150.062C227.706 150.062 237.212 154.814 240.629 159.518Z" fill="#EBEBEB"/>
<path d="M730.713 120.6L875.774 120.805C875.774 120.805 875.774 112.266 855.806 110.566C855.806 110.566 837.62 73.18 809.757 78.2091C792.408 81.2482 783.505 103.173 783.505 103.173C783.505 103.173 770.412 85.8913 759.937 89.2198C749.462 92.5484 743.178 110.928 743.178 110.928C743.178 110.928 732.362 115.776 730.713 120.6Z" fill="#EBEBEB"/>
<path d="M378.79 115.957L477.435 116.09C477.435 116.09 468.139 108.094 464.002 108.094C459.864 108.094 447.792 81.2843 432.394 82.3939C416.996 83.5034 408.748 103.451 408.748 103.451C408.748 103.451 390.011 98.0116 378.79 115.957Z" fill="#EBEBEB"/>
<path d="M654.339 169.153L738.687 169.274C738.687 169.274 734.497 164.233 729.875 163.606C729.875 163.606 720.932 138.931 705.875 138.738C691.878 138.557 686.235 153.873 686.235 153.873C686.235 153.873 679.767 146.987 673.573 150.123C667.38 153.258 663.832 162.255 663.832 162.255C663.832 162.255 656.866 165.704 654.339 169.153Z" fill="#EBEBEB"/>
<path d="M485.763 506.58C684.506 506.58 845.62 494.037 845.62 478.565C845.62 463.092 684.506 450.55 485.763 450.55C287.019 450.55 125.906 463.092 125.906 478.565C125.906 494.037 287.019 506.58 485.763 506.58Z" fill="#EBEBEB"/>
<path d="M628.257 547.512C726.783 547.512 806.654 537.669 806.654 525.527C806.654 513.384 726.783 503.541 628.257 503.541C529.732 503.541 449.861 513.384 449.861 525.527C449.861 537.669 529.732 547.512 628.257 547.512Z" fill="#EBEBEB"/>
<path d="M62.2065 412.319L169.402 412.03L276.597 411.921L491 411.716L705.403 411.921L812.599 412.03L919.794 412.319L812.599 412.621L705.403 412.729L491 412.922L276.597 412.729L169.402 412.621L62.2065 412.319Z" fill="#263238"/>
<path d="M919.794 399.572H62.2065V412.331H919.794V399.572Z" fill="#C7C7C7"/>
<path d="M106.331 399.572C107.204 403.783 107.204 408.108 106.331 412.319C105.86 410.225 105.641 408.09 105.676 405.952C105.647 403.81 105.866 401.671 106.331 399.572Z" fill="#263238"/>
<path d="M157.618 399.572C158.082 401.671 158.302 403.81 158.272 405.952C158.308 408.09 158.088 410.225 157.618 412.319C157.153 410.224 156.934 408.09 156.963 405.952C156.94 403.81 157.159 401.672 157.618 399.572Z" fill="#263238"/>
<path d="M208.904 399.572C209.777 403.783 209.777 408.108 208.904 412.319C208.031 408.108 208.031 403.783 208.904 399.572Z" fill="#263238"/>
<path d="M260.204 399.572C261.059 403.785 261.059 408.107 260.204 412.319C259.331 408.108 259.331 403.783 260.204 399.572Z" fill="#263238"/>
<path d="M311.49 399.572C312.363 403.783 312.363 408.108 311.49 412.319C310.618 408.108 310.618 403.783 311.49 399.572Z" fill="#263238"/>
<path d="M362.777 399.572C363.235 401.672 363.455 403.81 363.432 405.952C363.461 408.09 363.241 410.224 362.777 412.319C362.306 410.225 362.087 408.09 362.122 405.952C362.099 403.81 362.319 401.672 362.777 399.572Z" fill="#263238"/>
<path d="M414.064 399.572C414.528 401.671 414.748 403.81 414.718 405.952C414.754 408.09 414.534 410.225 414.064 412.319C413.191 408.108 413.191 403.783 414.064 399.572Z" fill="#263238"/>
<path d="M465.35 399.572C466.223 403.783 466.223 408.108 465.35 412.319C464.477 408.108 464.477 403.783 465.35 399.572Z" fill="#263238"/>
<path d="M516.65 399.572C517.523 403.783 517.523 408.108 516.65 412.319C515.777 408.108 515.777 403.783 516.65 399.572Z" fill="#263238"/>
<path d="M567.937 399.572C568.809 403.783 568.809 408.108 567.937 412.319C567.466 410.225 567.246 408.09 567.282 405.952C567.252 403.81 567.472 401.671 567.937 399.572Z" fill="#263238"/>
<path d="M619.223 399.572C619.681 401.672 619.901 403.81 619.878 405.952C619.913 408.09 619.694 410.225 619.223 412.319C618.759 410.224 618.539 408.09 618.568 405.952C618.545 403.81 618.765 401.672 619.223 399.572Z" fill="#263238"/>
<path d="M670.51 399.572C671.383 403.783 671.383 408.108 670.51 412.319C669.637 408.108 669.637 403.783 670.51 399.572Z" fill="#263238"/>
<path d="M721.809 399.572C722.665 403.785 722.665 408.107 721.809 412.319C720.936 408.108 720.936 403.783 721.809 399.572Z" fill="#263238"/>
<path d="M773.096 399.572C773.969 403.783 773.969 408.108 773.096 412.319C772.223 408.108 772.223 403.783 773.096 399.572Z" fill="#263238"/>
<path d="M824.382 399.572C824.841 401.672 825.06 403.81 825.037 405.952C825.066 408.09 824.847 410.224 824.382 412.319C823.912 410.225 823.692 408.09 823.728 405.952C823.698 403.81 823.918 401.671 824.382 399.572Z" fill="#263238"/>
<path d="M875.669 399.572C876.134 401.671 876.353 403.81 876.324 405.952C876.359 408.09 876.14 410.225 875.669 412.319C874.796 408.108 874.796 403.783 875.669 399.572Z" fill="#263238"/>
<path d="M884.861 379.806H878.942L880.448 263.451L880.579 253.755H883.224L883.355 263.451L884.861 379.806Z" fill="#0077B6"/>
<path d="M883.355 263.451H880.448L880.579 253.755H883.224L883.355 263.451Z" fill="#263238"/>
<path d="M867.145 218.467L869.463 256.444L872.186 256.842L874.661 257.204V216.2L869.397 217.792L867.145 218.467Z" fill="#0077B6"/>
<path d="M869.712 222.905C869.712 222.905 859.669 222.989 859.879 223.508C860.088 224.027 864.121 225.064 864.487 225.305C864.854 225.546 868.677 232.288 869.725 232.288C870.772 232.288 869.712 222.905 869.712 222.905Z" fill="#0077B6"/>
<path d="M870.445 233.651C870.445 233.651 860.415 233.747 860.612 234.266C860.808 234.784 864.867 235.821 865.221 236.063C865.574 236.304 869.424 243.033 870.458 243.033C871.492 243.033 870.445 233.651 870.445 233.651Z" fill="#0077B6"/>
<path d="M871.191 244.408C871.191 244.408 861.149 244.504 861.358 245.023C861.568 245.542 865.6 246.579 865.967 246.808C866.334 247.037 870.157 253.791 871.204 253.791C872.252 253.791 871.191 244.408 871.191 244.408Z" fill="#0077B6"/>
<path opacity="0.1" d="M869.397 217.792L872.186 256.842L874.661 257.204V216.2L869.397 217.792Z" fill="black"/>
<path d="M896.658 218.467L894.34 256.444L891.617 256.842L889.142 257.204V216.2L894.406 217.792L896.658 218.467Z" fill="#0077B6"/>
<path d="M894.104 222.905C894.104 222.905 904.134 222.989 903.924 223.508C903.715 224.027 899.682 225.064 899.316 225.305C898.949 225.546 895.126 232.288 894.078 232.288C893.031 232.288 894.104 222.905 894.104 222.905Z" fill="#0077B6"/>
<path d="M893.358 233.651C893.358 233.651 903.401 233.747 903.191 234.266C902.982 234.784 898.936 235.821 898.582 236.063C898.229 236.304 894.379 243.033 893.345 243.033C892.311 243.033 893.358 233.651 893.358 233.651Z" fill="#0077B6"/>
<path d="M892.625 244.408C892.625 244.408 902.654 244.504 902.445 245.023C902.235 245.542 898.203 246.579 897.836 246.808C897.469 247.037 893.646 253.791 892.599 253.791C891.551 253.791 892.625 244.408 892.625 244.408Z" fill="#0077B6"/>
<path opacity="0.1" d="M894.406 217.792L891.617 256.842L889.142 257.204V216.2L894.406 217.792Z" fill="black"/>
<path d="M891.329 213.112L890.504 258.132H873.299L872.474 213.112H891.329Z" fill="#0077B6"/>
<path d="M888.029 221.096C888.029 222.212 887.67 223.304 886.996 224.232C886.323 225.16 885.366 225.883 884.246 226.31C883.127 226.738 881.895 226.849 880.706 226.632C879.517 226.414 878.426 225.876 877.569 225.087C876.712 224.298 876.128 223.292 875.892 222.197C875.655 221.102 875.776 219.967 876.24 218.936C876.704 217.905 877.489 217.023 878.497 216.403C879.505 215.783 880.69 215.452 881.901 215.452C883.527 215.452 885.085 216.047 886.234 217.105C887.384 218.163 888.029 219.599 888.029 221.096Z" fill="#DD6A57"/>
<path d="M888.029 249.642C888.029 250.758 887.67 251.85 886.996 252.778C886.323 253.706 885.366 254.429 884.246 254.856C883.127 255.284 881.895 255.395 880.706 255.178C879.517 254.96 878.426 254.422 877.569 253.633C876.712 252.844 876.128 251.838 875.892 250.743C875.655 249.648 875.776 248.513 876.24 247.482C876.704 246.451 877.489 245.569 878.497 244.949C879.505 244.329 880.69 243.998 881.901 243.998C883.527 243.998 885.085 244.593 886.234 245.651C887.384 246.709 888.029 248.145 888.029 249.642Z" fill="white"/>
<path d="M888.029 235.496C888.027 236.611 887.665 237.701 886.99 238.628C886.315 239.555 885.357 240.276 884.237 240.701C883.118 241.127 881.886 241.237 880.698 241.018C879.51 240.799 878.42 240.26 877.564 239.47C876.708 238.68 876.126 237.675 875.891 236.58C875.655 235.486 875.777 234.351 876.242 233.321C876.706 232.29 877.491 231.409 878.499 230.79C879.506 230.17 880.69 229.839 881.901 229.839C882.707 229.839 883.505 229.986 884.249 230.27C884.994 230.555 885.67 230.971 886.239 231.497C886.808 232.022 887.259 232.646 887.567 233.332C887.874 234.018 888.031 234.753 888.029 235.496Z" fill="white"/>
<path d="M886.641 399.572H877.162L877.973 376.706L878.222 369.603H885.384L885.685 376.706L886.641 399.572Z" fill="#0077B6"/>
<path d="M885.685 376.706H877.973L878.222 369.603H885.384L885.685 376.706Z" fill="#455A64"/>
<path d="M183.307 428.48H339.117C339.117 428.48 322.096 361.438 261.225 361.438C200.354 361.438 185.925 413.513 183.307 428.48Z" fill="#0077B6"/>
<path opacity="0.2" d="M183.307 428.48H339.117C339.117 428.48 322.096 361.438 261.225 361.438C200.354 361.438 185.925 413.513 183.307 428.48Z" fill="black"/>
<path d="M635.419 435.716H791.23C791.23 435.716 774.209 368.674 713.338 368.674C652.467 368.674 638.104 420.749 635.419 435.716Z" fill="#0077B6"/>
<path opacity="0.2" d="M635.419 435.716H791.23C791.23 435.716 774.209 368.674 713.338 368.674C652.467 368.674 638.104 420.749 635.419 435.716Z" fill="black"/>
<path d="M147.654 306.203C144.315 311.027 138.488 364.923 138.108 366.805C137.729 368.686 132.871 376.935 132.871 378.503C132.871 380.071 131.562 404.336 132.282 405.903C133.859 408.766 135.653 411.522 137.65 414.152C138.501 415.093 160.577 432.592 163.051 432.833C165.526 433.075 188.361 433.219 188.793 432.833C189.225 432.447 191.857 367.709 261.147 367.709C330.436 367.709 329.677 436.451 330.96 436.717C332.243 436.982 642.411 443.47 642.411 443.47C642.411 432.942 643.302 370.302 711.269 370.302C755.551 370.302 777.927 403.913 778.7 428.709C779.014 439.032 777.142 450.417 777.757 450.417C779.8 450.417 786.792 450.887 787.983 450.417C789.174 449.947 803.695 441.143 804.86 440.829C806.026 440.516 814.405 440.359 816.448 439.888C818.49 439.418 832.815 427.828 833.076 427.406C833.338 426.984 833.757 422.389 833.836 421.991C833.914 421.593 848.422 405.264 849.103 403.467C849.783 401.67 850.032 386.74 850.032 385.245C850.032 383.749 823.702 344.421 817.561 340.188C811.42 335.955 767.701 321.821 754.909 319.686C742.117 317.552 671.806 307.904 669.253 306.264C666.7 304.623 546.634 241.2 525.75 236.484C508.872 232.722 313.52 237.896 303.294 238.366C293.068 238.836 264.76 243.552 262.037 243.552C259.313 243.552 227.994 243.395 226.07 244.179C224.145 244.963 226.069 251.873 228.452 253.127C230.835 254.382 153.454 297.725 147.654 306.203Z" fill="#0077B6"/>
<path d="M152.131 302.115C152.865 302.742 165.081 303.02 166.364 302.549C167.647 302.079 244.583 254.936 244.636 253.561C244.636 252.874 230.233 253.055 228.452 253.127C226.672 253.2 150.717 300.933 152.131 302.115Z" fill="#455A64"/>
<path d="M237.814 301.367C241.153 310.436 645.253 327.393 647.465 323.003C649.102 319.747 612.951 293.01 596.074 284.29C579.197 275.571 530.869 250.378 507.039 247.785C483.209 245.192 435.026 245.373 392.996 246.145C351.307 246.844 302.22 247.785 284.832 254.587C269.631 260.617 235.169 294.155 237.814 301.367Z" fill="#263238"/>
<path d="M249.088 296.073C250.096 299.486 339.34 308.326 443.929 312.8C548.519 317.274 600.159 317.974 601.442 317.504C602.725 317.033 597.855 291.37 596.074 289.247C594.293 287.124 519.36 251.801 507.602 250.848C495.845 249.895 432.289 249.787 400.237 250.257C368.185 250.727 301.291 254.261 289.899 258.494C279.857 262.233 248.053 292.66 249.088 296.073Z" fill="#455A64"/>
<g opacity="0.1">
<path d="M387.563 250.559L327.661 305.733C316.976 304.865 307.091 303.996 298.214 303.164L353.716 252.054C365.553 251.355 377.35 250.848 387.563 250.559Z" fill="white"/>
<path d="M601.233 312.065L595.197 317.624C589.086 317.624 578.546 317.439 563.576 317.07L594.738 288.379C595.203 288.626 595.642 288.912 596.048 289.235C597.344 290.755 600.198 304.286 601.233 312.065Z" fill="white"/>
<path d="M432.211 250.028L368.512 308.736C363.405 308.41 358.391 308.073 353.507 307.723L416.014 250.136C421.147 250.064 426.607 250.028 432.211 250.028Z" fill="white"/>
<path d="M568.945 275.74L525.291 315.972L509.763 315.441L558.208 270.819C561.887 272.472 565.501 274.124 568.945 275.74Z" fill="white"/>
<path d="M343.045 252.609L289.166 302.26L285.055 301.838L338.161 252.922L343.045 252.609Z" fill="white"/>
<path d="M578.228 280.118L538.948 316.37L534.522 316.225L575.269 278.682L578.228 280.118Z" fill="white"/>
<path d="M521.704 255.214L458.529 313.403L454.129 313.234L518.496 253.996L521.704 255.214Z" fill="white"/>
<path d="M300.23 256.396L255.137 297.882C253.631 297.605 252.387 297.339 251.431 297.074L294.639 257.276C296.276 256.987 298.135 256.685 300.23 256.396Z" fill="white"/>
</g>
<path d="M305.075 255.768C305.494 255.768 305.69 256.275 305.323 257.179C303.228 262.522 286.875 292.781 282.79 299.848C282.533 300.228 282.195 300.556 281.797 300.813C281.398 301.07 280.948 301.25 280.472 301.343L309.278 304.177C308.773 303.99 308.354 303.647 308.094 303.207C307.833 302.767 307.747 302.257 307.85 301.765C308.138 300.089 318.836 264.524 322.253 255.78C322.636 254.971 323.318 254.313 324.178 253.923C324.754 253.923 319.268 253.996 314.057 254.49C309.422 254.948 305.075 255.768 305.075 255.768Z" fill="#263238"/>
<path d="M343.045 252.609C343.045 252.609 343.569 252.874 343.595 253.815C343.779 262.184 344.8 304.093 343.923 306.384C343.866 306.612 343.716 306.811 343.504 306.939L348.95 307.337C348.669 306.984 348.497 306.567 348.453 306.131C347.837 299.052 347.288 260.629 347.392 253.525C347.425 253.085 347.603 252.664 347.903 252.319L343.045 252.609Z" fill="#263238"/>
<path d="M432.643 251.752C433.285 253.61 434.345 308.326 434.345 310.087C434.345 311.847 432.159 312.27 432.159 312.27L465.926 313.717C465.926 313.717 463.74 313.15 463.308 312.209C462.876 311.269 452.309 252.271 452.375 251.499C452.44 250.727 454.103 250.004 454.103 250.004H430.535C430.997 250.148 431.422 250.377 431.785 250.678C432.147 250.979 432.439 251.344 432.643 251.752Z" fill="#263238"/>
<path d="M153.624 313.898C149.473 314.38 140.151 323.317 139.47 325.198C138.789 327.079 136.236 339.803 137.598 341.684C138.96 343.565 143.909 348.281 148.164 348.438C152.419 348.594 173.225 339.489 175.097 337.921C176.969 336.353 178.331 326.79 176.118 323.715C173.906 320.639 158.901 313.271 153.624 313.898Z" fill="white"/>
<path d="M175.097 337.921C173.225 339.489 152.419 348.594 148.164 348.438C144.917 348.317 141.264 345.543 139.117 343.396C141.536 345.009 144.458 345.855 147.444 345.808C149.735 345.615 169.218 337.897 171.719 335.787C174.22 333.676 174.338 325.728 173.997 324.293C173.657 322.858 161.087 315.393 161.087 315.393C167.307 317.6 174.626 321.628 176.118 323.702C178.331 326.826 176.969 336.341 175.097 337.921Z" fill="#EBEBEB"/>
<path d="M136.406 384.943C135.254 386.004 134.861 393.976 136.066 394.676C137.27 395.375 144.249 395.303 145.611 394.676C146.973 394.048 150.469 388.079 150.207 386.041C149.945 384.002 137.768 383.689 136.406 384.943Z" fill="white"/>
<path d="M758.693 340.816C762.372 346.303 789.384 356.011 799.479 357.543C805.842 358.508 827.865 359.786 829.148 358.749C830.432 357.712 819.813 344.144 814.314 340.84C808.814 337.535 781.332 329.069 773.017 329.419C764.703 329.769 754.988 335.268 758.693 340.816Z" fill="white"/>
<path d="M829.148 358.725C827.839 359.786 805.842 358.508 799.479 357.519C789.384 355.987 762.372 346.279 758.693 340.791C755.014 335.304 764.703 329.732 773.017 329.371C773.663 329.336 774.31 329.336 774.955 329.371C767.217 332 765.633 337.571 770.346 340.755C775.06 343.939 790.17 351.38 796.206 352.936C802.019 354.443 823.702 357.555 825.587 356.192C825.946 355.8 826.207 355.339 826.349 354.842C826.492 354.346 826.513 353.827 826.412 353.322C828.402 356.132 829.633 358.327 829.148 358.725Z" fill="#EBEBEB"/>
<g opacity="0.5">
<path d="M239.909 339.537C239.935 342.888 238.523 346.113 235.981 348.51C233.4 350.955 229.871 352.357 226.168 352.406C222.466 352.456 218.894 351.15 216.236 348.775C214.894 347.577 213.826 346.142 213.097 344.556C212.368 342.97 211.992 341.266 211.992 339.543C211.992 337.821 212.368 336.116 213.097 334.531C213.826 332.945 214.894 331.51 216.236 330.311C217.551 329.133 219.104 328.204 220.809 327.579C222.513 326.955 224.334 326.646 226.169 326.67C228.003 326.695 229.814 327.053 231.497 327.723C233.181 328.393 234.705 329.363 235.981 330.577C238.522 332.969 239.934 336.19 239.909 339.537ZM239.909 339.537C239.879 336.206 238.415 333.022 235.837 330.685C234.561 329.553 233.056 328.664 231.407 328.068C229.758 327.472 227.998 327.181 226.227 327.212C222.705 327.277 219.355 328.621 216.904 330.951C214.478 333.253 213.121 336.335 213.121 339.543C213.121 342.752 214.478 345.834 216.904 348.136C219.355 350.466 222.705 351.809 226.227 351.875C227.998 351.905 229.758 351.615 231.407 351.019C233.056 350.423 234.561 349.533 235.837 348.401C238.413 346.059 239.877 342.872 239.909 339.537Z" fill="black"/>
<path d="M183.307 377.804C181.919 374.957 180.688 372.087 179.379 369.193C178.069 366.298 176.97 363.404 175.765 360.498C174.56 357.591 173.474 354.66 172.4 351.718C171.326 348.775 170.253 345.82 169.31 342.83C170.711 345.676 171.929 348.546 173.238 351.428C174.547 354.311 175.647 357.229 176.865 360.136C178.082 363.042 179.156 365.973 180.23 368.915C181.303 371.858 182.338 374.813 183.307 377.804Z" fill="black"/>
<path d="M135.333 377.804C142.05 377.683 148.753 377.695 155.47 377.719L175.595 377.912L195.719 378.358C202.423 378.551 209.127 378.756 215.83 379.082C209.127 379.203 202.41 379.191 195.706 379.178L175.568 378.973L155.444 378.527C148.74 378.334 142.036 378.129 135.333 377.804Z" fill="black"/>
<path d="M452.165 317.66L454.47 332.723L455.465 340.273C455.622 341.539 455.766 342.793 455.871 344.072C455.975 345.35 455.871 346.604 455.871 347.883L455.648 378.298L455.386 393.518L455.242 401.116L455.177 404.927L454.862 408.713L453.553 423.885L452.165 438.984L453.003 423.8L453.946 408.629L454.182 404.83V401.031L454.26 393.433L454.43 378.25L454.993 347.859C454.993 346.592 455.111 345.314 454.993 344.072C454.875 342.83 454.797 341.551 454.666 340.297L453.841 332.735L452.165 317.66Z" fill="black"/>
<path d="M633.495 324.571L636.336 339.706L637.645 347.328L637.986 349.221C638.134 349.852 638.217 350.494 638.234 351.139C638.234 352.417 638.234 353.696 638.234 354.986C638.143 365.225 637.868 375.488 637.527 385.691C637.44 388.248 637.322 390.804 637.174 393.361C637.018 395.941 636.481 398.489 635.577 400.935C634.058 405.867 632.316 410.727 630.405 415.551C628.54 420.389 626.318 425.104 623.753 429.662L622.719 431.35C622.365 431.905 621.959 432.435 621.58 432.978C621.182 433.523 620.745 434.043 620.27 434.534L619.59 435.294C619.22 435.497 618.802 435.613 618.372 435.631C615.557 435.897 612.794 435.933 610.005 436.017C587.747 436.439 565.553 436.258 543.321 436.114C521.088 435.969 498.869 435.668 476.637 435.294C454.404 434.92 432.198 434.353 409.978 433.605C398.875 433.183 387.72 432.845 376.669 431.929C375.247 431.832 373.837 431.627 372.453 431.314C371.667 431.036 371.209 430.699 370.541 430.433C369.874 430.168 369.311 429.879 368.682 429.613C366.155 428.564 363.563 427.636 361.049 426.478C358.501 425.365 356.142 423.919 354.044 422.184C352.218 420.219 350.53 418.148 348.99 415.986C342.731 407.544 336.747 398.885 330.777 390.262C324.806 381.639 318.888 372.955 313.009 364.272C307.13 355.589 301.33 346.846 295.595 338.078L293.474 334.774L292.963 333.905L292.715 333.471C292.673 333.313 292.652 333.151 292.649 332.989L292.44 331.083C292.204 328.526 291.994 325.97 291.89 323.413C291.89 322.774 291.89 322.135 291.89 321.483C291.98 320.846 292.129 320.216 292.335 319.602C292.715 318.396 293.173 317.19 293.644 315.984C294.574 313.572 295.569 311.16 296.603 308.808C295.591 311.22 294.626 313.632 293.71 316.044C293.264 317.25 292.819 318.456 292.4 319.662C292.2 320.273 292.056 320.899 291.968 321.532C291.968 322.171 291.968 322.81 291.968 323.449C292.086 325.994 292.335 328.551 292.584 331.095L292.806 333.001C292.819 333.159 292.845 333.316 292.885 333.471L293.134 333.881C293.304 334.146 293.448 334.412 293.631 334.689L295.778 337.981C301.579 346.701 307.562 355.372 313.428 364.031C325.212 381.337 337.088 398.692 349.566 415.624C351.078 417.726 352.731 419.74 354.515 421.654C356.568 423.332 358.869 424.733 361.35 425.814C363.824 426.936 366.404 427.853 368.957 428.914C369.599 429.179 370.266 429.445 370.856 429.734C371.445 430.023 372.165 430.409 372.676 430.578C373.994 430.855 375.333 431.041 376.682 431.133C387.72 432.025 398.849 432.339 409.952 432.713C432.211 433.412 454.378 433.858 476.597 434.232C498.817 434.606 521.036 435.004 543.269 435.233C565.501 435.463 587.786 435.68 609.927 435.318C612.689 435.245 615.491 435.209 618.215 434.956C618.529 434.956 618.935 434.835 618.987 434.823L619.642 434.1C620.092 433.626 620.504 433.122 620.873 432.592C621.239 432.062 621.645 431.543 621.999 431L623.02 429.348C625.628 424.811 627.89 420.113 629.789 415.286C631.718 410.462 633.464 405.61 635.027 400.73C635.917 398.326 636.454 395.824 636.624 393.289L637.004 385.618C637.449 375.392 637.815 365.116 637.999 354.926C637.999 353.647 637.999 352.369 637.999 351.103C637.979 350.463 637.9 349.825 637.763 349.197L637.436 347.304L636.126 339.73L633.495 324.571Z" fill="black"/>
<path d="M776.526 350.596C773.64 352.833 770.576 354.869 767.361 356.687C764.179 358.58 760.932 360.365 757.711 362.186C754.49 364.007 751.165 365.695 747.878 367.384C744.592 369.072 741.253 370.724 737.862 372.28C741.017 370.35 744.225 368.505 747.433 366.672L757.122 361.269L766.89 355.999L771.787 353.37C773.426 352.534 775.008 351.608 776.526 350.596Z" fill="black"/>
<path d="M308.662 380.541L351.949 381.59L395.248 382.796L481.835 385.233L568.408 388.018L611.694 389.417L654.968 390.985L611.668 389.936L568.382 388.73L481.795 386.294L395.222 383.508L351.936 382.097L308.662 380.541Z" fill="black"/>
<path d="M306.109 323.389L304.407 323.473H303.988C303.896 323.473 303.883 323.546 303.831 323.666C303.758 323.912 303.706 324.161 303.674 324.414C303.567 325.436 303.545 326.464 303.608 327.489C303.623 327.998 303.671 328.505 303.752 329.009C303.785 329.236 303.847 329.458 303.936 329.672H304.066H304.381C305.481 329.769 306.62 329.793 307.733 329.829C312.237 329.962 316.754 330.094 321.258 330.167L328.014 330.347H331.392H332.833C332.906 330.224 332.967 330.095 333.016 329.962C333.083 329.727 333.136 329.49 333.173 329.25C333.32 328.243 333.368 327.226 333.317 326.211C333.302 325.706 333.254 325.203 333.173 324.703C333.138 324.504 333.077 324.31 332.99 324.125C332.792 324.035 332.58 323.978 332.361 323.956C330.175 323.606 327.896 323.485 325.657 323.28C327.924 323.222 330.193 323.279 332.453 323.449C332.792 323.454 333.123 323.546 333.409 323.714C333.617 323.969 333.752 324.267 333.801 324.583C333.923 325.108 334.006 325.64 334.05 326.175C334.148 327.234 334.148 328.299 334.05 329.359C334.02 329.634 333.972 329.908 333.906 330.179C333.845 330.558 333.624 330.901 333.291 331.131C333.196 331.195 333.081 331.229 332.963 331.228H332.702H332.243H328.001L321.219 331.143C316.715 330.987 312.197 330.866 307.693 330.565C306.554 330.468 305.441 330.408 304.289 330.251C304.119 330.242 303.951 330.21 303.792 330.155C303.69 330.139 303.592 330.106 303.503 330.058C303.407 329.985 303.334 329.889 303.294 329.781C303.179 329.51 303.108 329.226 303.084 328.936C303.024 328.408 303.002 327.876 303.019 327.345C303.036 326.293 303.146 325.244 303.346 324.209C303.4 323.946 303.479 323.688 303.582 323.437C303.606 323.368 303.642 323.303 303.687 323.244C303.719 323.205 303.76 323.174 303.808 323.153C303.856 323.132 303.909 323.122 303.962 323.124H304.381L306.109 323.389Z" fill="black"/>
<path d="M471.805 327.164L470.116 327.248H469.697C469.605 327.248 469.579 327.321 469.527 327.441C469.452 327.685 469.404 327.936 469.383 328.189C469.271 329.211 469.245 330.239 469.304 331.264C469.304 331.783 469.37 332.289 469.448 332.784C469.485 333.011 469.551 333.234 469.645 333.447H469.763H470.09C471.19 333.543 472.329 333.568 473.442 333.604C477.946 333.736 482.45 333.869 486.954 333.941L493.723 334.122H497.088H498.476C498.555 334.122 498.607 334.122 498.476 334.122C498.553 334.006 498.611 333.88 498.646 333.748C498.718 333.515 498.775 333.277 498.817 333.037C498.957 332.029 499.005 331.013 498.961 329.998C498.941 329.493 498.889 328.989 498.804 328.49C498.771 328.292 498.714 328.098 498.633 327.911C498.436 327.822 498.223 327.765 498.005 327.743C495.805 327.393 493.54 327.272 491.301 327.067C493.563 327.011 495.827 327.064 498.083 327.224C498.424 327.231 498.756 327.327 499.039 327.501C499.251 327.755 499.391 328.054 499.445 328.37C499.563 328.9 499.628 329.431 499.694 329.962C499.792 331.021 499.792 332.086 499.694 333.145C499.664 333.421 499.616 333.695 499.55 333.966C499.419 334.243 499.471 334.544 498.935 334.918C498.835 334.984 498.716 335.017 498.594 335.015H498.345H497.887H493.632L486.862 334.93C482.345 334.774 477.841 334.653 473.324 334.339C472.198 334.255 471.085 334.183 469.933 334.038C469.758 334.028 469.587 333.996 469.422 333.941C469.327 333.918 469.235 333.886 469.147 333.845C469.054 333.767 468.979 333.672 468.925 333.568C468.815 333.297 468.748 333.012 468.728 332.723C468.67 332.195 468.643 331.663 468.65 331.131C468.678 330.08 468.792 329.032 468.99 327.996C469.04 327.733 469.114 327.475 469.213 327.224C469.244 327.156 469.284 327.091 469.331 327.031C469.361 326.991 469.403 326.959 469.451 326.938C469.499 326.917 469.552 326.907 469.605 326.91H470.024L471.805 327.164Z" fill="black"/>
</g>
<path d="M305.383 473.595C330.545 450.418 330.545 412.842 305.383 389.665C280.221 366.489 239.424 366.489 214.262 389.665C189.1 412.842 189.1 450.418 214.262 473.595C239.424 496.772 280.221 496.772 305.383 473.595Z" fill="#263238"/>
<path d="M293.088 462.27C311.46 445.348 311.46 417.912 293.088 400.99C274.716 384.068 244.929 384.068 226.557 400.99C208.185 417.912 208.185 445.348 226.557 462.27C244.929 479.192 274.716 479.192 293.088 462.27Z" fill="#DBDBDB"/>
<path d="M259.824 471.594C283.781 471.594 303.202 453.706 303.202 431.639C303.202 409.573 283.781 391.685 259.824 391.685C235.867 391.685 216.446 409.573 216.446 431.639C216.446 453.706 235.867 471.594 259.824 471.594Z" fill="#A6A6A6"/>
<path d="M266.633 421.618H253.002C257.598 415.491 241.585 394.145 241.585 394.145L248.773 391.95C253.539 399.487 255.922 401.694 259.85 401.694C263.778 401.694 266.148 399.487 270.927 391.95L278.089 394.157C278.089 394.157 262.037 415.491 266.633 421.618Z" fill="#DBDBDB"/>
<path d="M251.863 422.377L247.66 434.317C242.763 428.395 215.765 435.836 215.765 435.836V428.878C225.022 427.032 228.033 425.621 229.251 422.184C230.469 418.747 228.911 415.986 222.613 409.461L227.104 403.877C227.104 403.877 244.125 424.512 251.863 422.377Z" fill="#DBDBDB"/>
<path d="M248.092 435.547L259.117 442.928C251.484 445.34 250.829 471.329 250.829 471.329L243.628 469.243C244.57 460.559 244.06 457.484 240.878 455.361C237.696 453.239 234.331 453.733 225.69 457.243L221.277 451.587C221.277 451.587 247.909 442.988 248.092 435.547Z" fill="#DBDBDB"/>
<path d="M260.557 442.928L271.582 435.547C271.765 442.988 298.358 451.587 298.358 451.587L293.972 457.255C285.304 453.733 281.965 453.239 278.796 455.361C275.628 457.484 275.104 460.559 276.047 469.243L268.845 471.329C268.845 471.329 268.151 445.388 260.557 442.928Z" fill="#DBDBDB"/>
<path d="M271.988 434.317L267.772 422.377C275.51 424.512 292.649 403.877 292.649 403.877L297.153 409.473C290.842 415.973 289.297 418.747 290.502 422.184C291.706 425.621 294.744 427.008 304.001 428.89L303.922 435.836C303.922 435.836 276.885 428.395 271.988 434.317Z" fill="#DBDBDB"/>
<path d="M259.824 442.952C266.781 442.952 272.42 437.757 272.42 431.35C272.42 424.943 266.781 419.748 259.824 419.748C252.868 419.748 247.228 424.943 247.228 431.35C247.228 437.757 252.868 442.952 259.824 442.952Z" fill="#DBDBDB"/>
<path d="M733.193 483.808C766.643 472.664 783.951 438.654 771.852 407.844C759.753 377.034 722.829 361.091 689.379 372.235C655.929 383.379 638.62 417.39 650.719 448.2C662.818 479.01 699.743 494.952 733.193 483.808Z" fill="#263238"/>
<path d="M756.193 442.725C762.826 419.586 747.838 395.876 722.717 389.767C697.596 383.658 671.854 397.463 665.222 420.601C658.589 443.74 673.577 467.45 698.698 473.559C723.819 479.668 749.561 465.863 756.193 442.725Z" fill="#DBDBDB"/>
<path d="M710.68 471.594C734.637 471.594 754.058 453.706 754.058 431.639C754.058 409.573 734.637 391.685 710.68 391.685C686.723 391.685 667.302 409.573 667.302 431.639C667.302 453.706 686.723 471.594 710.68 471.594Z" fill="#A6A6A6"/>
<path d="M717.515 421.618H703.858C708.467 415.491 692.441 394.145 692.441 394.145L699.603 391.938C704.369 399.475 706.752 401.682 710.68 401.682C714.608 401.682 716.978 399.475 721.77 391.938L728.919 394.145C728.919 394.145 712.893 415.491 717.515 421.618Z" fill="#DBDBDB"/>
<path d="M702.719 422.377L698.516 434.317C693.619 428.395 666.621 435.836 666.621 435.836L666.555 428.878C675.812 427.032 678.824 425.621 680.042 422.184C681.259 418.747 679.701 415.986 673.403 409.461L677.894 403.877C677.894 403.877 694.981 424.512 702.719 422.377Z" fill="#DBDBDB"/>
<path d="M698.948 435.547L709.973 442.928C702.353 445.34 701.685 471.329 701.685 471.329L694.483 469.243C695.439 460.559 694.916 457.484 691.747 455.361C688.578 453.239 685.2 453.733 676.559 457.243L672.172 451.587C672.172 451.587 698.765 442.988 698.948 435.547Z" fill="#DBDBDB"/>
<path d="M711.387 442.928L722.412 435.547C722.595 442.988 749.174 451.587 749.174 451.587L744.788 457.255C736.12 453.733 732.782 453.239 729.613 455.361C726.444 457.484 725.921 460.559 726.863 469.243L719.662 471.329C719.662 471.329 719.007 445.388 711.387 442.928Z" fill="#DBDBDB"/>
<path d="M722.844 434.317L718.628 422.377C726.366 424.512 743.505 403.877 743.505 403.877L747.996 409.473C741.685 415.973 740.14 418.747 741.358 422.184C742.575 425.621 745.587 427.008 754.844 428.89L754.765 435.836C754.765 435.836 727.741 428.395 722.844 434.317Z" fill="#DBDBDB"/>
<path d="M710.68 442.952C717.636 442.952 723.276 437.757 723.276 431.35C723.276 424.943 717.636 419.748 710.68 419.748C703.724 419.748 698.084 424.943 698.084 431.35C698.084 437.757 703.724 442.952 710.68 442.952Z" fill="#DBDBDB"/>
<path d="M586.647 295.361C584.303 297.532 584.513 316.876 586.215 318.444C587.917 320.012 611.275 321.435 613.148 309.423C615.02 297.412 590.313 291.985 586.647 295.361Z" fill="#0077B6"/>
<path d="M671.871 306.927H652.873C603.432 276.885 535.583 247.158 535.583 247.158L546.843 244.661C587.917 262.968 667.118 304.853 669.2 306.167C670.055 306.517 670.951 306.772 671.871 306.927Z" fill="#455A64"/>
<g opacity="0.5">
<path d="M183.307 392.866C187.268 386.839 192.115 381.344 197.709 376.537C203.303 371.684 209.541 367.502 216.276 364.091C229.855 357.296 245.105 353.836 260.557 354.045L266.318 354.286L269.199 354.419C270.155 354.516 271.111 354.66 272.066 354.781L277.775 355.529C279.66 355.89 281.52 356.349 283.392 356.735C290.882 358.44 298.02 361.259 304.525 365.08C310.987 368.926 316.756 373.679 321.625 379.166C326.366 384.706 330.42 390.717 333.71 397.087C330.177 390.864 325.932 385.006 321.048 379.612C316.133 374.281 310.346 369.688 303.896 365.997C290.986 358.58 275.654 355.565 260.557 355.432C252.975 355.322 245.407 356.072 238.024 357.663C230.644 359.281 223.517 361.753 216.812 365.02C210.085 368.286 203.83 372.317 198.194 377.02C192.497 381.677 187.492 387.005 183.307 392.866Z" fill="white"/>
<path d="M634.739 392.867C638.7 386.839 643.547 381.344 649.141 376.537C654.751 371.68 661.007 367.498 667.76 364.091C681.347 357.292 696.607 353.832 712.068 354.045L717.829 354.287L720.709 354.419C721.665 354.516 722.621 354.66 723.564 354.781L729.285 355.529C731.158 355.891 733.03 356.349 734.903 356.735C742.392 358.44 749.53 361.259 756.035 365.08C762.497 368.926 768.267 373.679 773.135 379.166C777.877 384.706 781.93 390.717 785.22 397.088C781.476 390.961 777.613 384.871 772.559 379.613C767.637 374.287 761.852 369.694 755.407 365.997C742.497 358.58 727.164 355.565 712.055 355.432C704.477 355.323 696.913 356.072 689.534 357.663C674.702 360.928 661.002 367.585 649.704 377.02C643.976 381.669 638.944 386.998 634.739 392.867Z" fill="white"/>
<path d="M192.603 294.372C202.645 287.136 212.832 280.057 223.084 273.075C233.336 266.092 243.706 259.23 254.377 252.729C255.687 251.945 257.074 251.149 258.475 250.414C259.169 250.028 259.876 249.666 260.623 249.328C261.374 248.991 262.159 248.72 262.966 248.52C266.056 247.688 269.147 246.965 272.237 246.253C278.443 244.842 284.649 243.491 290.921 242.37C297.215 241.257 303.602 240.652 310.011 240.561C316.4 240.44 322.777 240.452 329.153 240.73C322.777 240.73 316.4 240.898 310.05 241.26C303.7 241.479 297.383 242.205 291.17 243.431C284.963 244.721 278.744 246.036 272.59 247.495C269.5 248.231 266.41 248.967 263.425 249.811C262.692 249.992 261.981 250.242 261.304 250.559C260.623 250.884 259.929 251.234 259.261 251.608C257.952 252.343 256.564 253.127 255.228 253.923C244.557 260.291 234.279 267.189 223.804 273.955L192.603 294.372Z" fill="white"/>
</g>
<path opacity="0.1" d="M692.441 372.099C643.079 382.495 642.359 433.991 642.359 443.434C642.359 443.434 332.178 436.922 330.908 436.681C329.873 436.476 330.188 391.395 293.579 374.21C310.024 381.699 331.091 399.837 339.065 426.321C339.929 429.143 385.101 433.557 462.312 435.836C539.524 438.116 606.64 436.681 619.432 435.028C632.225 433.376 647.059 371.918 692.441 372.099Z" fill="black"/>
<path opacity="0.1" d="M849.05 403.395C848.369 405.204 833.862 421.485 833.797 421.919C833.731 422.353 833.286 426.864 833.024 427.346C832.762 427.828 818.438 439.406 816.396 439.816C814.353 440.226 805.999 440.443 804.821 440.757C803.643 441.07 789.109 449.862 787.931 450.332C786.752 450.803 779.747 450.332 777.705 450.332C777.089 450.332 779.014 438.984 778.647 428.624C778.084 410.631 766.156 387.982 742.719 376.923C755.433 379.42 776.644 395.411 785.207 411.897C793.77 428.383 791.571 429.601 793.574 431.591C795.577 433.581 802.215 429.565 805.279 428.854C808.343 428.142 818.373 427.913 822.17 427.213C825.967 426.514 826.621 420.146 829.253 418.771C831.885 417.397 845.253 407.556 849.05 403.395Z" fill="black"/>
<path d="M523.733 127.969C522.11 112.918 510.849 97.9392 491 97.9392C471.15 97.9392 459.969 112.918 458.345 127.969C455.844 151.196 472.866 172.241 491 191.44C509.147 172.241 526.169 151.196 523.733 127.969ZM491 144.72C487.46 144.718 484 143.748 481.058 141.935C478.116 140.121 475.824 137.545 474.472 134.532C473.12 131.518 472.768 128.203 473.461 125.006C474.154 121.808 475.861 118.872 478.366 116.568C480.871 114.264 484.062 112.696 487.534 112.062C491.007 111.429 494.605 111.757 497.875 113.007C501.144 114.257 503.938 116.372 505.902 119.085C507.867 121.797 508.914 124.985 508.912 128.246C508.913 130.412 508.451 132.557 507.551 134.558C506.651 136.559 505.332 138.377 503.668 139.907C502.004 141.437 500.028 142.65 497.855 143.476C495.681 144.302 493.351 144.725 491 144.72Z" fill="#0077B6"/>
<path d="M569.023 530.121C571.642 530.881 644.402 530.013 647.151 528.349C648.212 527.734 648.683 517.953 648.906 506.122V505.748C648.906 503.336 648.984 500.804 648.997 498.259C648.997 497.909 648.997 497.559 648.997 497.21L645.501 462.417L596.781 462.863L601.586 497.33L601.652 498.693L601.94 505.833V506.568C601.94 506.568 574.234 518.375 571.419 520.498C568.604 522.62 566.47 529.434 569.023 530.121Z" fill="#DD6A57"/>
<path d="M569.023 530.121C571.642 530.881 644.402 530.013 647.151 528.349C648.212 527.734 648.683 517.953 648.906 506.122V505.748C648.906 503.336 648.984 500.804 648.997 498.259C648.997 497.909 648.997 497.559 648.997 497.21L601.547 497.33L601.612 498.693L601.901 505.833V506.568C601.901 506.568 574.195 518.375 571.38 520.498C568.565 522.62 566.47 529.434 569.023 530.121Z" fill="#EBEBEB"/>
<path d="M569.023 530.109C570.332 530.507 590.117 530.459 609.455 530.109C613.383 530.037 617.207 529.965 620.899 529.868C634.686 529.518 646.091 529 647.086 528.361C648.081 527.722 648.618 518.242 648.827 506.653C648.827 506.484 648.827 506.327 648.827 506.158C648.827 505.989 648.827 505.905 648.827 505.784L601.887 505.857V506.604C601.887 506.604 574.169 518.411 571.367 520.522C568.565 522.632 566.47 529.362 569.023 530.109Z" fill="#0077B6"/>
<path d="M569.809 527.504C582.09 527.082 631.622 526.443 643.786 526.877C643.891 526.877 643.891 526.938 643.786 526.95C631.636 527.613 582.09 527.89 569.822 527.697C569.56 527.685 569.56 527.516 569.809 527.504Z" fill="#263238"/>
<path d="M596.689 506.014C601.508 505.133 607.426 505.736 611.092 508.872C611.236 508.992 611.092 509.173 610.896 509.137C606.26 507.817 601.484 506.96 596.65 506.58C596.58 506.563 596.518 506.524 596.475 506.47C596.433 506.415 596.412 506.349 596.417 506.282C596.421 506.215 596.451 506.152 596.501 506.103C596.551 506.054 596.617 506.022 596.689 506.014Z" fill="#263238"/>
<path d="M593.233 507.991C598.051 507.111 603.969 507.714 607.701 510.837C607.845 510.97 607.701 511.151 607.505 511.103C602.869 509.787 598.093 508.934 593.259 508.558C593.187 508.548 593.122 508.515 593.074 508.465C593.025 508.415 592.997 508.351 592.994 508.285C592.991 508.218 593.013 508.152 593.057 508.099C593.1 508.045 593.162 508.007 593.233 507.991Z" fill="#263238"/>
<path d="M589.763 509.969C594.581 509.077 600.5 509.692 604.244 512.815C604.388 512.936 604.244 513.129 604.035 513.081C599.404 511.764 594.632 510.91 589.802 510.536C589.73 510.527 589.663 510.496 589.614 510.447C589.564 510.398 589.534 510.334 589.53 510.267C589.525 510.201 589.546 510.134 589.588 510.08C589.631 510.025 589.693 509.986 589.763 509.969Z" fill="#263238"/>
<path d="M609.455 530.097C613.383 530.025 617.207 529.953 620.899 529.856C634.686 529.506 646.091 528.988 647.086 528.349C648.081 527.709 648.618 518.23 648.827 506.641C648.827 506.472 648.827 506.315 648.827 506.146C648.827 505.977 648.827 505.893 648.827 505.772C642.424 509.897 619.76 523.79 609.455 530.097Z" fill="#263238"/>
<path d="M598.719 505.977H651.171C651.171 505.977 640.604 393.156 641.023 391.178C641.547 388.658 644.637 377.237 648.762 362.319L652.886 347.449C656.814 333.423 661.109 318.083 664.866 304.732C670.51 284.725 674.909 269.191 674.909 269.191H630.392C630.392 269.191 625.154 284.315 618.686 303.996C608.041 335.98 593.809 379.974 592.421 390.708C590.221 407.978 598.719 505.977 598.719 505.977Z" fill="#455A64"/>
<path d="M600.984 497.74C608.997 497.584 606.693 497.523 614.706 497.451C618.634 497.451 644.388 497.21 648.055 497.764C648.133 497.764 648.133 497.909 648.055 497.921C644.388 498.476 618.634 498.271 614.706 498.235C606.693 498.162 608.997 498.102 600.984 497.957C600.892 497.945 600.892 497.74 600.984 497.74Z" fill="#263238"/>
<path d="M631.099 384.292C632.814 377.309 635.38 370.459 637.645 363.609C642.193 349.676 646.767 335.755 651.367 321.845C653.663 314.891 655.967 307.936 658.28 300.982C659.459 297.472 660.624 293.963 661.829 290.465C663.033 286.968 664.316 283.639 665.377 280.178C665.796 278.767 666.032 279.539 665.482 281.384C664.382 285.002 663.282 288.62 662.143 292.238C659.891 299.353 657.617 306.469 655.321 313.584C650.782 327.735 646.2 341.877 641.573 356.011L634.621 377.261C633.457 380.635 632.513 384.071 631.793 387.548C631.169 391.185 631.015 394.877 631.334 398.547C631.832 405.94 632.762 413.32 633.508 420.701C634.254 428.082 634.987 435.475 635.734 442.867C637.2 457.565 638.662 472.27 640.12 486.983C640.303 488.84 640.487 490.709 640.644 492.579C640.644 493.194 639.662 493.146 639.596 492.579C637.868 478.034 636.545 463.442 635.053 448.885C633.56 434.329 632.107 419.941 630.64 405.409C630.274 401.791 629.855 398.173 629.842 394.471C629.842 391.045 630.264 387.63 631.099 384.292Z" fill="#263238"/>
<path d="M635.498 269.191C638.588 291.189 644.467 332.41 648.762 362.319C658.791 326.078 674.948 269.191 674.948 269.191H635.498Z" fill="#263238"/>
<path d="M624.552 530.761C627.092 531.533 699.917 530.905 702.68 529.253C703.74 528.65 704.251 518.87 704.513 507.039V506.665C704.513 504.253 704.618 501.72 704.631 499.176C704.631 498.826 704.631 498.476 704.631 498.126C704.801 481.049 703.466 463.321 703.466 463.321L655.858 463.611L657.285 498.078V499.441L657.56 506.58V507.304C657.56 507.304 629.802 519.038 626.974 521.137C624.146 523.235 622.038 530.001 624.552 530.761Z" fill="#DD6A57"/>
<path d="M624.552 530.761C627.092 531.532 699.917 530.905 702.68 529.253C703.74 528.65 704.251 518.869 704.513 507.039V506.665C704.513 504.253 704.618 501.72 704.631 499.175C704.631 498.826 704.631 498.476 704.631 498.126L657.285 498.078V499.441L657.56 506.58V507.304C657.56 507.304 629.802 519.038 626.974 521.137C624.146 523.235 622.038 530.001 624.552 530.761Z" fill="#EBEBEB"/>
<path d="M624.552 530.761C627.092 531.532 699.917 530.905 702.68 529.253C703.74 528.65 704.251 518.869 704.513 507.039V506.665L657.534 506.592V507.316C657.534 507.316 629.776 519.05 626.948 521.149C624.12 523.247 622.038 530.001 624.552 530.761Z" fill="#0077B6"/>
<path d="M625.39 528.156C637.658 527.77 687.204 527.299 699.367 527.77C699.459 527.77 699.459 527.842 699.367 527.842C687.204 528.469 637.658 528.578 625.39 528.337C625.128 528.337 625.128 528.228 625.39 528.156Z" fill="#263238"/>
<path d="M652.336 506.761C657.168 505.881 663.073 506.52 666.739 509.656C666.883 509.776 666.739 509.957 666.529 509.921C661.901 508.583 657.129 507.71 652.297 507.316C652.217 507.311 652.142 507.277 652.09 507.222C652.037 507.167 652.01 507.094 652.015 507.021C652.02 506.947 652.057 506.878 652.117 506.83C652.178 506.781 652.256 506.756 652.336 506.761Z" fill="#263238"/>
<path d="M648.879 508.727C653.698 507.847 659.616 508.486 663.282 511.621C663.426 511.742 663.282 511.923 663.086 511.887C658.457 510.55 653.685 509.677 648.853 509.282C648.773 509.279 648.698 509.246 648.644 509.192C648.59 509.138 648.562 509.066 648.565 508.992C648.569 508.919 648.604 508.849 648.663 508.8C648.722 508.75 648.8 508.724 648.879 508.727Z" fill="#263238"/>
<path d="M645.41 510.681C650.228 509.812 656.146 510.452 659.812 513.587C659.956 513.708 659.812 513.889 659.616 513.852C655.025 512.523 650.294 511.65 645.501 511.248C645.426 511.248 645.352 511.223 645.295 511.178C645.237 511.133 645.2 511.07 645.189 511.001C645.177 510.932 645.194 510.862 645.234 510.803C645.275 510.744 645.337 510.701 645.41 510.681Z" fill="#263238"/>
<path d="M631.897 269.191C631.897 269.191 632.919 288.789 637.789 304.298C638.182 305.576 638.601 306.843 639.099 308.049C643.556 309.699 647.841 311.718 651.904 314.079C651.904 314.079 652.415 329.841 652.925 347.413C653.501 367.07 654.091 388.983 653.973 393.626C653.528 411.017 656.33 506.653 656.33 506.653L708.703 506.846C708.703 506.846 699.223 400.054 699.289 393.687C699.38 383.448 696.749 338.211 694.706 305.178C693.397 284.833 692.441 269.155 692.441 269.155L631.897 269.191Z" fill="#455A64"/>
<path d="M658.084 498.078C666.097 497.945 663.793 497.885 671.806 497.837C675.734 497.837 701.488 497.716 705.155 498.295C705.175 498.295 705.195 498.303 705.21 498.316C705.225 498.33 705.233 498.348 705.233 498.367C705.233 498.387 705.225 498.405 705.21 498.419C705.195 498.432 705.175 498.44 705.155 498.44C701.488 498.983 675.721 498.681 671.806 498.621C663.793 498.524 666.097 498.476 658.084 498.283C658.061 498.276 658.041 498.262 658.027 498.243C658.013 498.225 658.005 498.203 658.005 498.181C658.005 498.158 658.013 498.136 658.027 498.118C658.041 498.099 658.061 498.085 658.084 498.078Z" fill="#263238"/>
<path d="M688.055 276.174C689.024 303.116 690.045 330.058 691.354 356.976C692.664 383.894 694.431 411.017 696.893 437.971C698.202 453.034 699.511 474.223 701.318 489.25C701.318 489.347 701.161 489.383 701.148 489.25C697.325 462.525 695.204 429.469 693.292 402.575C691.38 375.681 690.15 348.739 689.155 321.773C688.592 306.529 688.159 291.297 687.662 276.053C687.688 275.957 688.042 275.981 688.055 276.174Z" fill="#263238"/>
<path d="M636.873 306.891C642.09 308.894 647.107 311.316 651.865 314.127C651.906 314.146 651.938 314.18 651.953 314.22C651.968 314.261 651.964 314.306 651.943 314.344C651.922 314.382 651.886 314.412 651.842 314.425C651.798 314.439 651.749 314.435 651.708 314.416C646.654 312.149 641.482 309.966 636.572 307.458C636.49 307.421 636.428 307.356 636.398 307.277C636.369 307.197 636.375 307.111 636.415 307.036C636.454 306.96 636.525 306.903 636.611 306.876C636.697 306.849 636.791 306.854 636.873 306.891Z" fill="#263238"/>
<path d="M633.717 285.219C634.136 287.293 634.673 289.344 635.158 291.394C635.642 293.444 635.956 295.301 636.467 297.207C636.929 299.038 637.946 300.711 639.4 302.031C640.225 302.73 641.128 303.357 642.019 303.997L643.498 305.034C643.433 304.756 643.38 304.479 643.328 304.202L642.896 301.85C642.568 300.101 642.267 298.352 641.979 296.604C641.416 293.167 640.893 289.693 640.107 286.292C640.107 286.264 640.119 286.236 640.141 286.216C640.164 286.195 640.193 286.184 640.225 286.184C640.256 286.184 640.286 286.195 640.308 286.216C640.33 286.236 640.343 286.264 640.343 286.292C641.272 289.657 642.294 292.998 643.105 296.399C643.498 298.063 644.912 306.288 644.978 306.879C645.043 307.47 645.095 308.085 645.122 308.688C645.213 309.3 645.213 309.921 645.122 310.533C645.122 310.678 644.886 310.654 644.821 310.533C644.554 309.957 644.365 309.354 644.257 308.736C644.085 308.152 643.945 307.56 643.839 306.963L643.721 306.3C642.843 305.805 642.032 305.154 641.207 304.612C640.382 304.069 639.413 303.406 638.588 302.791C637.037 301.584 635.919 299.974 635.38 298.172C634.834 296.232 634.483 294.249 634.333 292.25C634.045 289.922 633.835 287.571 633.482 285.231C633.482 285.135 633.717 285.074 633.717 285.219Z" fill="#263238"/>
<path d="M597.711 177.282L604.022 208.795C604.323 209.735 603.773 210.447 602.804 210.387L585.429 209.362C584.901 209.29 584.405 209.084 583.998 208.767C583.591 208.449 583.288 208.033 583.125 207.565L576.814 176.04C576.513 175.111 577.063 174.4 578.031 174.46L595.406 175.485C595.935 175.553 596.433 175.759 596.841 176.077C597.248 176.395 597.55 176.813 597.711 177.282Z" fill="#37474F"/>
<path d="M595.642 177.077L601.966 208.638C602.267 209.567 601.717 210.278 600.748 210.218L583.36 209.193C582.833 209.124 582.338 208.918 581.932 208.6C581.527 208.282 581.227 207.864 581.069 207.396L574.797 175.847C574.496 174.906 575.046 174.207 576.015 174.255L593.403 175.292C593.92 175.367 594.404 175.574 594.799 175.89C595.195 176.205 595.487 176.617 595.642 177.077Z" fill="#455A64"/>
<path d="M590.784 178.211C590.772 178.48 590.846 178.748 590.998 178.978C591.151 179.209 591.374 179.393 591.64 179.506C591.905 179.62 592.202 179.658 592.492 179.616C592.781 179.575 593.051 179.455 593.266 179.271C593.481 179.088 593.633 178.85 593.701 178.588C593.77 178.325 593.752 178.05 593.65 177.797C593.548 177.544 593.367 177.324 593.13 177.166C592.892 177.008 592.609 176.918 592.316 176.908C592.123 176.9 591.929 176.928 591.747 176.989C591.565 177.05 591.398 177.144 591.255 177.265C591.113 177.386 590.998 177.532 590.917 177.694C590.836 177.857 590.791 178.032 590.784 178.211Z" fill="#263238"/>
<path d="M650.451 227.5C639.452 246.301 615.845 270.241 606.706 269.879C602.359 269.71 594.529 270.277 589.095 265.38C577.246 254.707 567.989 234.965 566.535 223.858C566.012 219.914 587.184 212.485 590.038 215.826C596.729 223.653 604.166 238.74 605.436 238.74C610.123 238.643 629.266 225.546 642.634 216.32C658.857 205.02 654.837 220.011 650.451 227.5Z" fill="#DD6A57"/>
<path d="M567.229 203.621C569.848 195.794 571.891 194.154 570.319 186.448C569.298 181.395 572.362 178.621 575.963 182.83C581.855 189.704 580.715 200.473 579.157 204.091L567.229 203.621Z" fill="#DD6A57"/>
<path d="M567.334 227.319C567.334 227.319 564.152 216.055 566.09 207.456C567.4 201.511 571.93 188.86 590.562 183.023C594.987 181.636 602.346 182.552 596.022 187.231C591.531 190.548 587.59 191.404 585.351 193.78C585.351 193.78 594.581 195.963 595.917 200.1C597.072 203.716 597.947 207.404 598.536 211.134C597.817 211.389 597.083 211.603 596.336 211.774C596.336 211.774 597.462 215.681 594.045 220.963L567.334 227.319Z" fill="#DD6A57"/>
<path d="M568.355 201.969C571.118 200.039 577.036 196.059 583.099 194.347C589.842 192.453 603.393 190.464 604.86 195.07C605.933 198.435 600.84 199.617 600.84 199.617C600.84 199.617 606.627 199.882 606.876 203.127C607.099 206.081 603.092 206.745 603.092 206.745C603.092 206.745 606.575 207.468 606.195 210.363C605.75 213.836 598.536 211.762 594.778 214.909C593.94 215.633 568.355 201.969 568.355 201.969Z" fill="#DD6A57"/>
<path d="M584.094 201.245C589.323 199.13 595.126 198.529 600.735 199.521C600.879 199.521 600.919 199.665 600.735 199.665C595.123 199.589 589.522 200.14 584.054 201.306C584.054 201.306 584.054 201.257 584.094 201.245Z" fill="#263238"/>
<path d="M586.372 207.432C591.766 205.786 597.541 205.506 603.092 206.624C603.236 206.624 603.275 206.781 603.092 206.769C597.494 206.427 591.872 206.67 586.333 207.492C586.333 207.492 586.333 207.432 586.372 207.432Z" fill="#263238"/>
<path d="M565.855 231.902C565.855 231.902 580.964 263.547 590.588 267.611C600.211 271.676 606.143 271.229 609.835 270.856C611.247 270.613 612.586 270.094 613.763 269.336C624.068 263.306 643.197 241.14 651.184 228.525C657.167 219.058 657.089 210.194 648.722 212.63C645.878 213.576 643.224 214.95 640.866 216.694C625.154 227.548 606.941 237.775 606.13 237.329C605.318 236.883 597.41 223.809 597.41 223.809L565.855 231.902Z" fill="#0077B6"/>
<path d="M604.833 243.962C605.004 245.385 604.779 246.825 604.179 248.147C604.074 247.438 604.074 246.72 604.179 246.012C604.287 245.303 604.508 244.612 604.833 243.962Z" fill="white"/>
<path d="M585.115 251.789C585.22 252.497 585.22 253.215 585.115 253.923C585.013 254.631 584.801 255.321 584.486 255.974C584.382 255.265 584.382 254.547 584.486 253.839C584.593 253.132 584.804 252.442 585.115 251.789Z" fill="white"/>
<path d="M619.878 259.423C619.982 260.131 619.982 260.849 619.878 261.557C619.777 262.265 619.566 262.956 619.249 263.608C619.062 262.184 619.287 260.74 619.904 259.423H619.878Z" fill="white"/>
<path d="M629.423 228.332C629.528 229.04 629.528 229.758 629.423 230.467C629.323 231.175 629.111 231.865 628.794 232.517C628.689 231.809 628.689 231.09 628.794 230.382C628.896 229.675 629.108 228.984 629.423 228.332Z" fill="white"/>
<path d="M632.5 241.079C630.954 241.237 629.391 241.029 627.956 240.476C628.725 240.38 629.505 240.38 630.274 240.476C631.043 240.578 631.793 240.781 632.5 241.079Z" fill="white"/>
<path d="M592.264 244.818C591.495 244.915 590.715 244.915 589.946 244.818C589.174 244.728 588.42 244.537 587.707 244.251C588.475 244.142 589.257 244.142 590.025 244.251C590.797 244.341 591.551 244.532 592.264 244.818Z" fill="white"/>
<path d="M612.768 255.865C612 255.974 611.218 255.974 610.45 255.865C609.683 255.777 608.933 255.586 608.225 255.298C609.769 255.129 611.335 255.333 612.768 255.889V255.865Z" fill="white"/>
<path d="M573.828 233.843C573.06 233.946 572.279 233.946 571.511 233.843C570.739 233.754 569.985 233.563 569.272 233.277C570.041 233.18 570.821 233.18 571.589 233.277C572.361 233.367 573.115 233.557 573.828 233.843Z" fill="white"/>
<path d="M593.743 266.237C592.195 266.405 590.625 266.201 589.187 265.646C589.955 265.537 590.736 265.537 591.504 265.646C592.278 265.743 593.032 265.942 593.743 266.237Z" fill="white"/>
<path d="M652.886 213.667C653.52 213.926 654.19 214.104 654.876 214.198C654.774 213.998 654.652 213.808 654.51 213.631C653.969 213.577 653.423 213.589 652.886 213.667Z" fill="white"/>
<path d="M614.64 236.183C615.251 236.623 615.793 237.138 616.251 237.715C616.728 238.279 617.112 238.904 617.39 239.572C616.773 239.139 616.23 238.622 615.779 238.04C615.297 237.48 614.912 236.853 614.64 236.183Z" fill="white"/>
<path d="M595.747 253.875C596.362 254.315 596.908 254.83 597.37 255.407C597.843 255.973 598.227 256.598 598.509 257.264C597.889 256.83 597.342 256.314 596.886 255.732C596.413 255.166 596.029 254.541 595.747 253.875Z" fill="white"/>
<path d="M584.971 230.43C585.585 230.866 586.132 231.377 586.594 231.95C587.068 232.516 587.451 233.142 587.734 233.807C587.113 233.374 586.566 232.857 586.11 232.276C585.64 231.712 585.256 231.091 584.971 230.43Z" fill="white"/>
<path d="M626.581 251.668C627.192 252.108 627.734 252.623 628.192 253.2C628.669 253.764 629.053 254.389 629.331 255.057C628.115 254.162 627.168 252.996 626.581 251.668Z" fill="white"/>
<path d="M640.814 221.904C641.432 222.336 641.978 222.848 642.438 223.424C642.911 223.99 643.294 224.615 643.577 225.281C642.962 224.846 642.416 224.334 641.953 223.761C641.485 223.192 641.102 222.567 640.814 221.904Z" fill="white"/>
<path d="M641.744 236.46C642.7 235.329 643.965 234.451 645.41 233.916C644.941 234.485 644.385 234.988 643.76 235.411C643.142 235.842 642.463 236.195 641.744 236.46Z" fill="white"/>
<path d="M574.889 243.431C575.36 242.859 575.92 242.355 576.552 241.936C577.167 241.5 577.846 241.147 578.568 240.886C577.603 242.015 576.335 242.892 574.889 243.431Z" fill="white"/>
<path d="M595.459 237.727C595.928 237.162 596.484 236.662 597.108 236.243C597.721 235.804 598.4 235.45 599.125 235.194C598.652 235.757 598.097 236.256 597.475 236.678C596.861 237.115 596.182 237.469 595.459 237.727Z" fill="white"/>
<path d="M618.11 249.413C618.579 248.848 619.135 248.348 619.76 247.93C620.372 247.49 621.051 247.136 621.776 246.88C621.303 247.443 620.748 247.942 620.126 248.364C619.51 248.797 618.831 249.15 618.11 249.413Z" fill="white"/>
<path d="M604.48 266.84C604.957 266.277 605.517 265.778 606.143 265.356C606.751 264.912 607.432 264.558 608.159 264.307C607.685 264.873 607.125 265.372 606.496 265.79C605.884 266.23 605.205 266.584 604.48 266.84Z" fill="white"/>
<path opacity="0.1" d="M613.815 269.336C624.12 263.306 643.249 241.14 651.236 228.525C657.22 219.058 657.141 210.194 648.775 212.63C644.192 220.071 623.845 252.657 613.815 269.336Z" fill="black"/>
<path d="M569.704 237.727C570.856 237.208 581.711 233.94 584.107 233.277C586.503 232.613 596.139 229.815 598.653 229.321C598.67 229.327 598.685 229.338 598.695 229.352C598.706 229.366 598.711 229.382 598.711 229.399C598.711 229.416 598.706 229.433 598.695 229.447C598.685 229.461 598.67 229.471 598.653 229.478C596.297 230.394 586.555 233.24 584.146 233.964C581.737 234.688 570.948 237.703 569.743 237.884C569.639 237.896 569.625 237.763 569.704 237.727Z" fill="#263238"/>
<path d="M621.933 293.154C622.981 294.36 696.853 298.606 697.259 298.196C698.372 297.11 681.128 222.35 665.338 209.132C661.947 206.298 651.603 208.517 648.748 210.604C646.955 211.918 642.307 220.903 639.046 228.392C632.552 243.395 621.004 292.093 621.933 293.154Z" fill="#263238"/>
<path d="M650.647 207.722C647.478 209.41 643.956 219.456 650.438 221.554C656.919 223.653 664.316 214.632 665.613 211.593C666.909 208.554 657.469 204.091 650.647 207.722Z" fill="#0077B6"/>
<path d="M651.092 220.204C655.164 221.132 662.221 215.452 665.05 210.833C665.233 210.507 664.749 207.143 664.356 203.03C664.133 200.534 663.937 197.748 663.963 195.191L646.536 198.918C647.493 202.122 648.016 205.424 648.094 208.747C648.091 209.096 648.047 209.443 647.963 209.784C647.968 209.844 647.968 209.904 647.963 209.965C647.57 211.955 647.164 219.299 651.092 220.204Z" fill="#DD6A57"/>
<path d="M663.138 195.372C662.562 198.568 659.799 209.965 649.73 210.085C649.131 210.088 648.531 210.052 647.937 209.977C647.928 209.917 647.928 209.856 647.937 209.796C648.015 209.455 648.059 209.107 648.068 208.759C647.973 205.435 647.441 202.135 646.483 198.93L663.138 195.372Z" fill="#263238"/>
<path d="M664.84 175.256C667.132 180.804 665.063 197.386 660.912 201.306C654.955 206.986 644.598 208.132 639.203 201.402C633.966 194.89 637.082 173.326 641.73 169.708C648.618 164.378 661.462 167.043 664.84 175.256Z" fill="#DD6A57"/>
<path d="M648.565 186.315C648.565 186.315 648.657 186.315 648.644 186.423C648.474 187.533 648.474 188.835 649.534 189.318C649.534 189.318 649.534 189.39 649.534 189.378C648.199 189.077 648.212 187.352 648.565 186.315Z" fill="#263238"/>
<path d="M649.783 185.254C651.747 185.326 651.472 188.944 649.652 188.872C647.832 188.799 648.12 185.205 649.783 185.254Z" fill="#263238"/>
<path d="M641.744 185.905C641.744 185.905 641.652 185.905 641.639 186.001C641.639 187.123 641.338 188.413 640.212 188.703V188.775C641.573 188.679 641.901 186.93 641.744 185.905Z" fill="#263238"/>
<path d="M640.748 184.663C638.798 184.409 638.379 188.015 640.172 188.281C641.966 188.546 642.385 184.892 640.748 184.663Z" fill="#263238"/>
<path d="M651.459 183.71C650.935 183.541 650.477 183.324 649.979 183.119C649.424 182.974 648.936 182.665 648.591 182.239C648.511 182.087 648.486 181.915 648.522 181.75C648.557 181.584 648.651 181.434 648.788 181.322C649.106 181.153 649.467 181.064 649.835 181.064C650.203 181.064 650.564 181.153 650.883 181.322C651.593 181.559 652.182 182.032 652.532 182.649C652.586 182.79 652.596 182.941 652.563 183.087C652.53 183.233 652.454 183.368 652.343 183.478C652.233 183.587 652.092 183.666 651.936 183.707C651.78 183.748 651.615 183.749 651.459 183.71Z" fill="#263238"/>
<path d="M639.334 183.553C639.867 183.489 640.396 183.401 640.919 183.288C641.495 183.259 642.046 183.061 642.49 182.721C642.602 182.586 642.663 182.421 642.663 182.251C642.663 182.081 642.602 181.915 642.49 181.78C642.231 181.542 641.907 181.371 641.553 181.287C641.198 181.202 640.826 181.206 640.473 181.298C639.723 181.379 639.032 181.714 638.536 182.239C638.43 182.366 638.367 182.519 638.354 182.679C638.342 182.839 638.38 182.998 638.465 183.138C638.55 183.278 638.678 183.392 638.832 183.466C638.987 183.539 639.161 183.57 639.334 183.553Z" fill="#263238"/>
<path d="M649.796 196.867C649.482 197.109 649.167 197.446 648.722 197.458C648.264 197.419 647.819 197.296 647.413 197.097C647.57 197.327 647.791 197.515 648.054 197.641C648.316 197.766 648.61 197.824 648.906 197.808C649.158 197.764 649.39 197.652 649.574 197.487C649.758 197.322 649.885 197.111 649.94 196.88C649.94 196.855 649.848 196.831 649.796 196.867Z" fill="#263238"/>
<path d="M648.775 193.43C648.431 193.852 647.997 194.205 647.499 194.466C647.001 194.728 646.451 194.892 645.881 194.95C645.386 195.01 644.884 195.01 644.388 194.95H644.1L643.839 194.89C643.774 194.876 643.716 194.842 643.676 194.793C643.635 194.745 643.614 194.685 643.616 194.624C643.61 194.588 643.61 194.552 643.616 194.516V194.419C643.616 193.551 643.852 192.249 643.852 192.249C643.498 192.381 641.691 192.996 641.757 192.55C642.162 188.663 642.996 184.824 644.244 181.093C644.252 181.072 644.267 181.053 644.287 181.04C644.307 181.027 644.331 181.02 644.356 181.02C644.38 181.02 644.404 181.027 644.424 181.04C644.444 181.053 644.459 181.072 644.467 181.093C644.113 184.711 643.079 188.196 642.66 191.802C643.3 191.567 643.976 191.425 644.663 191.38C644.794 191.38 644.244 193.901 644.257 194.287C645.02 194.409 645.801 194.388 646.554 194.226C647.308 194.065 648.018 193.765 648.644 193.346C648.762 193.262 648.853 193.346 648.775 193.43Z" fill="#263238"/>
<path d="M645.095 194.721C645.615 195.326 646.296 195.795 647.073 196.084C647.499 196.206 647.956 196.206 648.382 196.084C649.338 195.842 649.351 195.022 649.167 194.323C649.06 193.954 648.906 193.598 648.709 193.262C647.704 194.09 646.438 194.601 645.095 194.721Z" fill="#263238"/>
<path d="M647.073 196.084C647.499 196.206 647.956 196.206 648.382 196.084C649.338 195.842 649.351 195.022 649.167 194.323C648.654 194.355 648.167 194.547 647.786 194.866C647.406 195.186 647.154 195.615 647.073 196.084Z" fill="#F392B9"/>
<path d="M660.834 188.365C660.834 188.365 664.578 182.89 667.262 184.096C669.947 185.302 667.262 193.129 664.29 194.311C663.916 194.488 663.507 194.594 663.088 194.621C662.668 194.649 662.247 194.598 661.85 194.472C661.452 194.346 661.086 194.147 660.774 193.887C660.463 193.627 660.211 193.312 660.035 192.96L660.834 188.365Z" fill="#DD6A57"/>
<path d="M666.451 186.327C666.451 186.327 666.451 186.327 666.451 186.399C665.488 186.894 664.649 187.569 663.988 188.381C663.327 189.194 662.859 190.125 662.614 191.115C662.726 190.912 662.885 190.734 663.079 190.593C663.272 190.452 663.497 190.351 663.737 190.297C663.977 190.244 664.226 190.238 664.469 190.281C664.711 190.325 664.941 190.416 665.141 190.548C665.141 190.548 665.141 190.669 665.141 190.657C664.758 190.561 664.353 190.577 663.98 190.703C663.608 190.828 663.286 191.056 663.06 191.356C662.686 191.862 662.374 192.403 662.13 192.972C662.038 193.165 661.685 193.081 661.75 192.876C661.567 190.331 663.518 186.701 666.451 186.327Z" fill="#263238"/>
<path d="M639.636 176.944C645.514 180.381 653.148 174.641 653.148 174.641C653.686 175.791 654.616 176.749 655.797 177.369C656.978 177.989 658.346 178.238 659.695 178.078C659.695 178.078 661.161 186.99 663.727 186.894C667.655 186.749 668.362 174.496 667.04 172.144C666.521 171.395 665.839 170.752 665.037 170.258C664.234 169.764 663.329 169.429 662.379 169.274C661.958 167.834 660.962 166.593 659.59 165.801C656.853 164.016 647.806 166.838 647.806 166.838C647.235 165.724 646.387 164.749 645.331 163.992C645.079 163.802 644.787 163.662 644.474 163.579C644.161 163.497 643.834 163.473 643.51 163.51C643.187 163.547 642.876 163.645 642.595 163.796C642.314 163.947 642.069 164.149 641.875 164.39C642.39 165.037 642.739 165.783 642.896 166.573C643.459 169.178 641.128 169.25 641.063 166.874C641.004 165.984 641.292 165.103 641.875 164.39C640.67 162.882 638.771 162.436 637.672 163.305C635.55 164.884 634.739 174.086 639.636 176.944Z" fill="#263238"/>
<path d="M672.107 215.175C694.235 236.388 726.497 290.103 730.477 297.81C733.187 303.044 703.505 316.828 702.248 313.017C700.637 308.193 674.752 248.026 667.917 225.341C664.12 212.835 667.537 210.785 672.107 215.175Z" fill="#DD6A57"/>
<path d="M700.847 309.423C701.881 312.028 705.403 323.1 707.878 324.474C710.353 325.849 723.276 325.56 729.796 325.56C736.317 325.56 737.652 323.883 737.495 321.809C737.338 319.735 723.708 319.397 723.708 319.397C723.708 319.397 741.973 324.221 746.569 325.017C751.165 325.813 761.757 328.261 763.289 324.752C763.97 323.172 761.076 321.568 761.076 321.568C761.076 321.568 765.515 322.774 766.222 320.724C767.034 318.408 763.498 317.106 763.498 317.106C763.498 317.106 766.274 317.612 766.34 315.731C766.484 311.51 749.109 309.436 749.109 309.436C749.109 309.436 762.412 315.405 762.831 311.968C763.433 307.144 736.16 301.982 733.318 299.908C731.463 298.467 729.922 296.716 728.775 294.746L700.847 309.423Z" fill="#DD6A57"/>
<path d="M737.39 322.858C737.436 322.565 737.404 322.266 737.297 321.987C737.19 321.707 737.011 321.456 736.775 321.254C736.303 320.858 735.763 320.536 735.178 320.302C733.972 319.829 732.723 319.458 731.446 319.192C728.827 318.589 726.209 318.167 723.59 317.54C726.301 317.503 729.007 317.783 731.642 318.372C732.988 318.655 734.283 319.109 735.492 319.723C736.116 320.04 736.66 320.476 737.089 321.001C737.31 321.26 737.454 321.567 737.507 321.893C737.56 322.219 737.52 322.551 737.39 322.858Z" fill="#263238"/>
<path d="M761.076 321.52C759.191 321.098 757.345 320.603 755.498 320.121C753.652 319.638 751.806 319.096 749.96 318.589L744.461 316.997C742.628 316.467 740.795 315.948 738.935 315.441C740.86 315.628 742.768 315.942 744.644 316.382C746.529 316.768 748.389 317.275 750.235 317.781C752.081 318.288 753.914 318.866 755.708 319.506C757.502 320.145 759.322 320.796 761.076 321.52Z" fill="#263238"/>
<path d="M743.348 311.232C745.109 311.338 746.86 311.564 748.585 311.908C750.327 312.226 752.049 312.629 753.744 313.114C755.442 313.599 757.107 314.175 758.732 314.838C760.365 315.48 761.945 316.229 763.459 317.082C761.783 316.539 760.147 315.948 758.471 315.441C756.795 314.935 755.145 314.392 753.469 313.922C751.793 313.451 750.104 312.981 748.415 312.523C746.726 312.065 745.011 311.667 743.348 311.232Z" fill="#263238"/>
<path d="M746.032 307.216C751.78 307.689 757.314 309.453 762.15 312.354C759.44 311.462 756.821 310.533 754.137 309.701C751.453 308.869 748.768 308.024 746.032 307.216Z" fill="#263238"/>
<path d="M668.192 231.226C673.429 252.018 698.529 308.893 698.529 308.893L721.076 298.883L732.441 293.83C732.441 293.83 693.724 238.113 677.907 219.89C676.677 218.491 675.564 217.285 674.542 216.272C664.735 206.624 664.133 215.187 668.192 231.226Z" fill="#0077B6"/>
<path d="M696.657 302.706C709.921 295.603 725.03 290.007 727.583 288.861C727.701 288.861 727.78 288.994 727.662 289.042C725.043 290.055 708.572 298.172 696.736 302.899C696.565 302.947 696.565 302.706 696.657 302.706Z" fill="#263238"/>
<path d="M691.891 243.443C691.996 244.151 691.996 244.87 691.891 245.578C691.795 246.285 691.588 246.976 691.276 247.628C691.158 246.925 691.158 246.209 691.276 245.506C691.373 244.795 691.58 244.1 691.891 243.443Z" fill="white"/>
<path d="M681.469 261.702C681.574 262.41 681.574 263.128 681.469 263.837C681.371 264.544 681.164 265.234 680.853 265.887C680.735 265.179 680.735 264.46 680.853 263.752C680.949 263.045 681.156 262.354 681.469 261.702Z" fill="white"/>
<path d="M707.734 290.537C707.839 291.242 707.839 291.956 707.734 292.66C707.632 293.372 707.42 294.066 707.105 294.722C707 294.014 707 293.296 707.105 292.588C707.206 291.88 707.417 291.189 707.734 290.537Z" fill="white"/>
<path d="M706.935 258.916C707.053 259.619 707.053 260.335 706.935 261.039C706.838 261.75 706.631 262.444 706.32 263.101C706.208 262.393 706.208 261.674 706.32 260.966C706.416 260.259 706.623 259.568 706.935 258.916Z" fill="white"/>
<path d="M714.896 272.242C715.001 272.951 715.001 273.669 714.896 274.377C714.799 275.088 714.591 275.782 714.281 276.439C714.162 275.732 714.162 275.012 714.281 274.305C714.378 273.594 714.585 272.899 714.896 272.242Z" fill="white"/>
<path d="M679.544 223.532C678.776 223.635 677.995 223.635 677.226 223.532C676.459 223.444 675.709 223.253 675.001 222.965C675.765 222.869 676.54 222.869 677.305 222.965C678.077 223.055 678.831 223.246 679.544 223.532Z" fill="white"/>
<path d="M679.321 244.251C677.776 244.408 676.212 244.201 674.778 243.648C675.547 243.552 676.327 243.552 677.096 243.648C677.865 243.75 678.615 243.953 679.321 244.251Z" fill="white"/>
<path d="M699.76 255.358C698.996 255.455 698.22 255.455 697.456 255.358C696.683 255.265 695.929 255.07 695.217 254.78C695.985 254.677 696.766 254.677 697.534 254.78C698.303 254.872 699.053 255.067 699.76 255.358Z" fill="white"/>
<path d="M720.133 297.315C719.369 297.412 718.593 297.412 717.829 297.315C717.058 297.22 716.305 297.029 715.59 296.748C716.358 296.64 717.139 296.64 717.907 296.748C718.675 296.836 719.425 297.027 720.133 297.315Z" fill="white"/>
<path d="M698.857 298.015C698.092 298.111 697.317 298.111 696.552 298.015C695.78 297.925 695.027 297.734 694.313 297.448C695.081 297.339 695.863 297.339 696.631 297.448C697.399 297.536 698.149 297.727 698.857 298.015Z" fill="white"/>
<path d="M692.637 277.272C691.868 277.368 691.089 277.368 690.32 277.272C689.552 277.178 688.802 276.983 688.094 276.693C688.863 276.596 689.643 276.596 690.411 276.693C691.179 276.791 691.928 276.985 692.637 277.272Z" fill="white"/>
<path d="M712.853 282.928C713.465 283.367 714.006 283.883 714.464 284.459C714.947 285.02 715.331 285.646 715.603 286.316C714.989 285.88 714.447 285.364 713.993 284.785C713.515 284.221 713.131 283.595 712.853 282.928Z" fill="white"/>
<path d="M682.791 253.369C683.402 253.804 683.944 254.315 684.402 254.888C684.874 255.455 685.258 256.08 685.541 256.745C684.927 256.313 684.385 255.801 683.93 255.226C683.45 254.664 683.066 254.037 682.791 253.369Z" fill="white"/>
<path d="M672.042 229.912C672.656 230.348 673.198 230.864 673.652 231.443C674.129 232.007 674.513 232.633 674.791 233.301C674.177 232.864 673.635 232.348 673.181 231.769C672.698 231.209 672.314 230.582 672.042 229.912Z" fill="white"/>
<path d="M703.112 268.866C703.73 269.298 704.277 269.809 704.736 270.385C705.203 270.955 705.586 271.579 705.875 272.243C705.257 271.811 704.71 271.299 704.251 270.723C703.781 270.155 703.397 269.53 703.112 268.866Z" fill="white"/>
<path d="M693.868 287.149C694.483 287.588 695.029 288.104 695.492 288.68C695.965 289.247 696.348 289.872 696.631 290.538C695.406 289.648 694.453 288.48 693.868 287.149Z" fill="white"/>
<path d="M721.783 289.139C722.748 288.01 724.017 287.133 725.462 286.594C724.497 287.722 723.229 288.599 721.783 289.139Z" fill="white"/>
<path d="M703.112 304.165C703.586 303.6 704.146 303.1 704.775 302.682C705.383 302.237 706.064 301.883 706.791 301.633C706.317 302.198 705.757 302.698 705.128 303.116C704.516 303.556 703.837 303.909 703.112 304.165Z" fill="white"/>
<path d="M701.24 282.325C702.205 281.196 703.473 280.319 704.919 279.78C704.442 280.346 703.882 280.85 703.256 281.275C702.641 281.711 701.962 282.065 701.24 282.325Z" fill="white"/>
<path d="M682.529 237.22C682.998 236.651 683.554 236.148 684.179 235.725C684.794 235.289 685.473 234.936 686.195 234.676C685.725 235.247 685.164 235.751 684.533 236.171C683.921 236.604 683.246 236.957 682.529 237.22Z" fill="white"/>
<path d="M666.974 219.914C667.443 219.345 667.999 218.842 668.624 218.419C669.241 217.985 669.919 217.632 670.641 217.37C670.172 217.938 669.616 218.442 668.991 218.865C668.372 219.296 667.694 219.649 666.974 219.914Z" fill="white"/>
<path d="M691.551 266.333C692.023 265.767 692.578 265.264 693.2 264.838C693.819 264.407 694.497 264.054 695.217 263.788C694.748 264.357 694.192 264.861 693.567 265.284C692.949 265.715 692.27 266.068 691.551 266.333Z" fill="white"/>
</svg>
