<svg width="141" height="139" viewBox="0 0 141 139" fill="none" xmlns="http://www.w3.org/2000/svg">
<path d="M61.3136 65.2573C61.1113 65.2572 60.9148 65.198 60.7543 65.0888C60.5938 64.9797 60.4783 64.8267 60.4257 64.6535C60.3199 64.3026 49.7353 29.4512 47.8677 18.4148C46.6487 11.2014 49.0684 6.93372 51.3132 4.62444C52.5891 3.3118 54.1745 2.2638 55.9575 1.55455C57.7404 0.845301 59.6772 0.492112 61.631 0.51996C69.8052 0.51996 73.9866 7.09692 75.0538 10.5731C75.9738 13.6004 77.5469 18.8677 77.5653 18.9208C77.6161 19.127 77.5748 19.3426 77.4501 19.5223C77.3254 19.7021 77.1271 19.832 76.8967 19.8848C76.6663 19.9376 76.4218 19.9092 76.2145 19.8055C76.0073 19.7018 75.8534 19.5309 75.7851 19.3288C75.7851 19.2757 74.2074 14.0248 73.2782 10.9933C72.349 7.96188 68.692 2.15196 61.631 2.15196C59.9425 2.12764 58.2684 2.43174 56.7267 3.04288C55.1849 3.65401 53.8128 4.55734 52.707 5.68932C50.7152 7.72932 48.567 11.5727 49.6894 18.1741C51.5294 29.1208 62.1094 63.8701 62.206 64.2291C62.2692 64.438 62.2365 64.6606 62.1149 64.848C61.9933 65.0354 61.7927 65.1724 61.5574 65.2288C61.478 65.2485 61.3959 65.2581 61.3136 65.2573Z" fill="#263238"/>
<path d="M9.46695 104.376C5.62135 104.376 2.49335 103.197 0.91555 99.7782C-2.25385 92.9279 7.60855 88.4399 19.0257 83.2379C22.7057 81.5651 26.5053 79.8311 30.1301 77.9339C43.8795 70.6674 42.886 65.8245 42.8722 65.7755C42.8214 65.5693 42.8627 65.3537 42.9874 65.1739C43.1121 64.9942 43.3104 64.8643 43.5408 64.8115C43.7712 64.7587 44.0157 64.7871 44.2229 64.8908C44.4302 64.9945 44.5841 65.1653 44.6523 65.3675C44.8317 65.9713 45.9679 71.4875 31.0731 79.3415C27.3931 81.2836 23.5659 83.0135 19.8675 84.7149C9.25535 89.5456 0.0875492 93.7194 2.61755 99.1825C5.43275 105.274 15.0605 102.381 24.3755 99.5905C30.1439 97.8606 35.5904 96.2245 38.9897 97.0446C42.0166 97.779 42.6375 99.6395 42.9687 100.639C43.0147 100.798 43.0747 100.954 43.1481 101.104C43.3067 101.265 43.388 101.474 43.3748 101.687C43.3616 101.9 43.2548 102.1 43.0773 102.244C42.8999 102.388 42.6659 102.465 42.4255 102.458C42.1851 102.45 41.9574 102.36 41.7911 102.206C41.4986 101.885 41.2982 101.505 41.2069 101.1C40.9125 100.215 40.5445 99.1132 38.5067 98.6195C35.6502 97.9259 30.4613 99.4885 24.9643 101.137C19.7111 102.683 14.0715 104.376 9.46695 104.376Z" fill="#263238"/>
<path d="M106.136 88.3297C105.975 88.332 105.817 88.2968 105.676 88.2277C105.57 88.1758 105.477 88.1059 105.402 88.022C105.326 87.9381 105.271 87.8419 105.237 87.7388C105.204 87.6357 105.194 87.5279 105.208 87.4213C105.221 87.3148 105.259 87.2117 105.317 87.118C110.12 79.4557 118.777 77.1913 126.422 75.1962C129.089 74.5474 131.713 73.7682 134.283 72.8624C137.214 71.7649 138.883 69.0721 138.088 66.7424C136.731 62.7604 128.653 59.6188 110.055 62.744C101.72 64.1435 95.3352 63.56 91.071 60.9529C87.391 58.7212 86.7516 55.8203 86.724 55.6979C86.6846 55.4874 86.7397 55.2716 86.8775 55.0968C87.0154 54.9219 87.2249 54.8019 87.4613 54.7624C87.6977 54.7229 87.9421 54.7671 88.1422 54.8855C88.3423 55.004 88.4821 55.1872 88.5318 55.396C88.6192 55.7795 90.7674 64.323 109.692 61.1406C134.605 56.9545 139.063 63.9966 139.831 66.2692C140.912 69.4434 138.828 72.9277 134.983 74.368C132.35 75.3026 129.659 76.1023 126.923 76.7629C119.26 78.7662 111.343 80.8429 106.909 87.9136C106.831 88.0361 106.719 88.1387 106.584 88.2117C106.449 88.2846 106.294 88.3252 106.136 88.3297Z" fill="#263238"/>
<path d="M77.6113 24.0942C77.2088 24.0935 76.8177 23.9759 76.4978 23.7592C76.1779 23.5426 75.947 23.2388 75.8403 22.8946L73.9589 16.7746C73.8952 16.5678 73.878 16.3519 73.9084 16.1392C73.9387 15.9265 74.016 15.7212 74.1358 15.535C74.2556 15.3487 74.4156 15.1853 74.6067 15.0539C74.7977 14.9225 75.016 14.8258 75.2492 14.7693C75.4824 14.7128 75.7258 14.6975 75.9657 14.7245C76.2055 14.7514 76.437 14.8199 76.6469 14.9262C76.8568 15.0325 77.0411 15.1744 77.1893 15.3438C77.3374 15.5133 77.4464 15.7069 77.5101 15.9138L79.3915 22.0338C79.455 22.2406 79.4719 22.4564 79.4412 22.669C79.4106 22.8817 79.3331 23.0868 79.213 23.2729C79.093 23.4589 78.9328 23.6221 78.7417 23.7532C78.5505 23.8843 78.3321 23.9808 78.0989 24.037C77.9402 24.0763 77.7761 24.0955 77.6113 24.0942Z" fill="#263238"/>
<path d="M103.657 87.2364C103.657 87.2364 105.851 83.8989 108.045 85.2902C110.239 86.6815 105.538 89.46 107.419 90.0148C109.301 90.5697 113.059 89.1988 114.319 92.7974C115.58 96.396 111.808 98.0769 108.05 97.2446C104.291 96.4123 101.15 93.0748 103.657 87.2364Z" fill="white"/>
<path d="M109.926 97.6566C109.273 97.6561 108.623 97.5835 107.99 97.4403C107.007 97.2425 106.084 96.8596 105.284 96.3175C104.483 95.7755 103.823 95.087 103.348 94.2987C102.221 92.3893 102.258 89.9209 103.44 87.1628V87.1343C103.496 87.0486 104.788 85.0943 106.449 84.7883C106.744 84.7319 107.05 84.7325 107.345 84.7903C107.641 84.848 107.918 84.9614 108.16 85.1228C109.54 85.9919 108.56 87.3301 107.856 88.3093C107.479 88.8356 107.088 89.3783 107.189 89.6353C107.189 89.6639 107.235 89.7536 107.47 89.823C108.072 89.9505 108.692 90.0013 109.31 89.9739C111.196 89.9739 113.542 89.9739 114.494 92.7361C115.138 94.5925 114.462 95.7431 113.777 96.3836C113.263 96.8125 112.657 97.146 111.996 97.3646C111.335 97.5832 110.631 97.6824 109.926 97.6566ZM103.864 87.326C102.732 89.9658 102.695 92.3118 103.753 94.1111C104.199 94.847 104.818 95.4896 105.568 95.9957C106.318 96.5017 107.181 96.8593 108.1 97.0446C110.248 97.5219 112.36 97.1507 113.482 96.1021C114.338 95.2861 114.549 94.1763 114.094 92.8381C113.238 90.3901 111.173 90.3901 109.347 90.3656C108.674 90.3945 108 90.3368 107.346 90.1943C107.218 90.1657 107.1 90.1109 107.001 90.0343C106.902 89.9578 106.825 89.8616 106.775 89.7536C106.596 89.3089 107.01 88.7377 107.488 88.0727C108.326 86.9058 108.868 86.0327 107.912 85.4411C107.723 85.3113 107.504 85.2199 107.271 85.1734C107.039 85.1268 106.797 85.1263 106.564 85.1718C105.184 85.4533 103.979 87.1547 103.864 87.326Z" fill="#263238"/>
<path d="M112.719 97.0568C112.673 97.0566 112.628 97.0453 112.59 97.0242C112.539 96.9943 112.504 96.9479 112.492 96.8952C112.48 96.8425 112.492 96.7876 112.525 96.7427C115.161 93.1767 110.906 90.5207 110.722 90.4105C110.672 90.3792 110.638 90.3318 110.627 90.2785C110.616 90.2251 110.628 90.17 110.662 90.1249C110.679 90.1027 110.7 90.0836 110.726 90.0688C110.751 90.0541 110.779 90.0439 110.808 90.039C110.838 90.034 110.868 90.0344 110.898 90.04C110.927 90.0457 110.955 90.0565 110.98 90.0719C111.026 90.1004 115.791 93.0666 112.903 96.963C112.883 96.9908 112.856 97.014 112.824 97.0303C112.792 97.0467 112.756 97.0558 112.719 97.0568Z" fill="#263238"/>
<path d="M105.308 132.129L59.4782 138.473C56.4238 138.881 53.3096 136.629 52.5276 133.406L28.7272 35.4611C27.3472 30.8425 32.0346 28.3823 35.089 27.958L78.6694 22.5153C81.7238 22.1073 84.8334 24.3594 85.62 27.5826L112.479 125.368C113.261 128.595 111.38 131.325 105.308 132.129Z" fill="white"/>
<path d="M58.7421 138.73C55.8395 138.73 53.0473 136.502 52.3021 133.45L28.5017 35.5018C28.242 34.7372 28.1734 33.9315 28.3005 33.1409C28.4276 32.3504 28.7474 31.5939 29.2377 30.9241C30.6729 28.982 33.2673 28.0028 35.0567 27.758L78.6371 22.3112C81.8019 21.8746 85.0357 24.2206 85.8407 27.5417L112.7 125.323C112.907 126.011 112.948 126.731 112.819 127.434C112.691 128.137 112.396 128.808 111.955 129.403C110.777 130.913 108.555 131.892 105.34 132.32L59.5149 138.665C59.2597 138.705 59.0013 138.727 58.7421 138.73ZM79.4053 22.6661C79.1696 22.6662 78.9343 22.6826 78.7015 22.7151L35.1211 28.1619C33.4329 28.3945 30.9811 29.3165 29.6241 31.1485C29.1681 31.7718 28.8713 32.476 28.7544 33.2118C28.6376 33.9476 28.7037 34.6972 28.9479 35.408L52.7529 133.361C53.5119 136.478 56.5111 138.665 59.4413 138.257L105.271 131.896C108.358 131.488 110.478 130.562 111.573 129.15C111.98 128.6 112.251 127.98 112.369 127.33C112.486 126.68 112.447 126.016 112.254 125.38L85.3945 27.6315C84.6999 24.7633 82.1009 22.6661 79.4053 22.6661Z" fill="#263238"/>
<path d="M108.44 131.019L62.6199 137.363C59.5655 137.771 56.4559 135.515 55.6739 132.292L31.8597 34.3473C31.0777 31.1241 32.9177 28.1701 35.9721 27.7458L81.8019 21.4014C84.8563 20.9934 87.9705 23.2497 88.7525 26.4729L112.553 124.417C113.339 127.641 111.495 130.594 108.44 131.019Z" fill="#263238"/>
<path d="M61.8793 137.608C58.9721 137.608 56.1799 135.38 55.4393 132.328L31.6343 34.384C31.4114 33.5536 31.38 32.6919 31.542 31.8505C31.7041 31.0092 32.0562 30.2056 32.5773 29.488C32.958 28.9801 33.4527 28.5473 34.0305 28.2166C34.6083 27.886 35.2567 27.6646 35.9353 27.5663L81.7651 21.2219C84.9345 20.7813 88.1683 23.1273 88.9779 26.4484L112.76 124.368C112.99 125.202 113.027 126.068 112.869 126.914C112.711 127.761 112.361 128.57 111.84 129.293C111.458 129.801 110.962 130.233 110.384 130.564C109.805 130.894 109.156 131.116 108.477 131.215L62.6475 137.559C62.3934 137.594 62.1365 137.61 61.8793 137.608ZM82.5425 21.5483C82.3069 21.5484 82.0715 21.5647 81.8387 21.5973L36.0089 27.9417C35.3914 28.0312 34.8013 28.2329 34.2758 28.5341C33.7502 28.8352 33.3004 29.2294 32.9545 29.692C32.4667 30.368 32.1383 31.1247 31.9888 31.9163C31.8394 32.7079 31.8722 33.5182 32.0851 34.2983L55.8855 132.243C56.6445 135.356 59.6437 137.547 62.5785 137.139L108.408 130.79C109.025 130.701 109.615 130.499 110.139 130.198C110.664 129.897 111.113 129.502 111.458 129.04C111.948 128.365 112.278 127.608 112.428 126.816C112.578 126.025 112.546 125.214 112.332 124.434L88.5271 26.5137C87.8325 23.6577 85.2335 21.5565 82.5471 21.5565L82.5425 21.5483Z" fill="#263238"/>
<path d="M108.666 119.383L56.9297 126.543L35.2683 37.3991L86.9999 30.2346L108.666 119.383Z" fill="#00B4D8"/>
<path d="M56.9297 126.747C56.8779 126.747 56.8277 126.731 56.7875 126.702C56.7472 126.673 56.7195 126.633 56.7089 126.588L35.0429 37.4399C35.0306 37.3852 35.0421 37.3283 35.0751 37.2808C35.0934 37.2579 35.1166 37.2386 35.1435 37.2238C35.1704 37.2091 35.2003 37.1993 35.2315 37.1951L86.9632 30.0347C87.0214 30.0273 87.0807 30.0395 87.1292 30.0689C87.1778 30.0984 87.2121 30.143 87.2253 30.1939L108.891 119.338C108.898 119.365 108.898 119.393 108.892 119.421C108.886 119.448 108.873 119.474 108.855 119.497C108.818 119.542 108.764 119.573 108.703 119.583L56.9665 126.747H56.9297ZM35.5443 37.5664L57.0999 126.315L108.381 119.215L86.8205 30.4672L35.5443 37.5664Z" fill="#263238"/>
<path d="M64.6761 57.8684C65.2051 60.1165 64.8785 62.0627 63.9585 62.2136C63.0385 62.3646 61.8655 60.6632 61.3411 58.4152C60.8167 56.1671 61.1387 54.2209 62.0587 54.07C62.9787 53.919 64.1517 55.6 64.6761 57.8684Z" fill="#263238"/>
<path d="M76.0381 55.9834C76.5625 58.2315 76.2405 60.1777 75.3159 60.3327C74.3913 60.4877 73.2229 58.7823 72.6985 56.5342C72.1741 54.2861 72.4961 52.34 73.4161 52.189C74.3361 52.0381 75.4999 53.7353 76.0381 55.9834Z" fill="#263238"/>
<path d="M70.2283 75.9224C64.7911 75.9224 59.4321 72.9644 56.0971 67.9583C56.0033 67.7742 55.9899 67.5658 56.0593 67.3734C56.1288 67.181 56.2762 67.0183 56.4731 66.9168C56.67 66.8153 56.9023 66.7821 57.1252 66.8238C57.3481 66.8654 57.5456 66.9789 57.6795 67.1423C61.1111 72.2912 66.8381 75.0371 72.2891 74.1395C77.5929 73.2704 81.6409 69.0395 82.5931 63.3683C82.611 63.2611 82.6524 63.1581 82.7151 63.0652C82.7778 62.9722 82.8605 62.8911 82.9586 62.8265C83.0566 62.7619 83.168 62.7151 83.2864 62.6887C83.4049 62.6623 83.528 62.6568 83.6488 62.6726C83.7697 62.6885 83.8858 62.7252 83.9906 62.7808C84.0954 62.8364 84.1868 62.9098 84.2596 62.9968C84.3325 63.0837 84.3853 63.1825 84.415 63.2876C84.4448 63.3926 84.451 63.5018 84.4331 63.609C83.3613 69.982 78.7337 74.7433 72.6433 75.747C71.8461 75.8707 71.0377 75.9294 70.2283 75.9224Z" fill="#263238"/>
<path d="M47.9663 70.3946L45.61 74.6682L46.0232 74.8475L48.3795 70.5738L47.9663 70.3946Z" fill="white"/>
<path d="M67.7264 34.5818L50.0885 66.5717L50.5017 66.7509L68.1396 34.761L67.7264 34.5818Z" fill="white"/>
<path d="M62.2168 34.8714L54.8354 47.4105L55.2432 47.5994L62.6246 35.0603L62.2168 34.8714Z" fill="white"/>
<path d="M96.8491 105.864L88.6614 120.228L89.0719 120.412L97.2596 106.048L96.8491 105.864Z" fill="white"/>
<path d="M100.645 99.2262L98.1003 103.69L98.5109 103.874L101.055 99.4103L100.645 99.2262Z" fill="white"/>
<path d="M67.2889 28.7495L52.9967 30.712C52.6927 30.7269 52.3935 30.64 52.1584 30.4684C51.9232 30.2969 51.7693 30.0533 51.7271 29.7858C51.6814 29.6688 51.6621 29.5449 51.6705 29.4212C51.6788 29.2975 51.7145 29.1765 51.7756 29.0651C51.8367 28.9537 51.922 28.8541 52.0265 28.7719C52.1311 28.6898 52.2529 28.6267 52.3849 28.5863L52.4769 28.5618L66.7599 26.632C67.0639 26.6171 67.3631 26.7041 67.5982 26.8756C67.8334 27.0471 67.9873 27.2907 68.0295 27.5582C68.113 27.7968 68.0862 28.055 67.9551 28.2761C67.824 28.4972 67.5992 28.6631 67.3303 28.7373L67.2889 28.7495Z" fill="white"/>
<path d="M52.8633 30.9405C52.5998 30.9139 52.3481 30.8286 52.1317 30.6926C51.9153 30.5566 51.7412 30.3743 51.6255 30.1626C51.5098 29.9509 51.4564 29.7167 51.4701 29.4818C51.4839 29.2469 51.5644 29.0188 51.7041 28.8189C51.7881 28.7093 51.897 28.6164 52.0237 28.5462C52.1504 28.4759 52.2922 28.4299 52.4401 28.4109L66.7599 26.4158C67.1211 26.3956 67.4778 26.4956 67.7602 26.6963C68.0427 26.897 68.2306 27.184 68.2871 27.501C68.3342 27.6754 68.341 27.8564 68.307 28.0331C68.273 28.2098 68.1989 28.3786 68.0893 28.5292C68.0044 28.6389 67.8947 28.7318 67.7672 28.802C67.6397 28.8723 67.4972 28.9183 67.3487 28.9372L53.0519 30.916C52.9898 30.9284 52.9268 30.9366 52.8633 30.9405ZM66.9117 26.8156H66.8105L52.4999 28.7985C52.3244 28.8276 52.1689 28.917 52.0675 29.0474C51.9924 29.1523 51.9422 29.2698 51.9201 29.3926C51.8979 29.5154 51.9043 29.6408 51.9387 29.7614C51.9714 29.9765 52.092 30.1736 52.2778 30.315C52.4635 30.4564 52.7014 30.5323 52.9461 30.5284L67.2429 28.5496C67.33 28.5358 67.4129 28.5062 67.4865 28.4626C67.5601 28.4191 67.6228 28.3626 67.6707 28.2966C67.8226 28.0721 67.8677 27.8033 67.7961 27.5492C67.7245 27.2952 67.542 27.0768 67.2889 26.9421C67.1681 26.8796 67.0357 26.8368 66.8979 26.8156H66.9117Z" fill="#263238"/>
<path d="M85.62 126.71C85.3578 125.637 84.3228 124.878 83.32 125.021C82.3172 125.164 81.6916 126.147 81.94 127.22C82.1884 128.293 83.2372 129.052 84.24 128.909C85.2428 128.767 85.8776 127.783 85.62 126.71Z" fill="white"/>
<path d="M84.0008 129.13C82.9612 129.13 81.963 128.342 81.7008 127.265C81.6214 126.969 81.6107 126.661 81.6692 126.361C81.7277 126.061 81.8543 125.774 82.0412 125.519C82.1791 125.333 82.3592 125.176 82.5699 125.055C82.7806 124.935 83.0173 124.856 83.2648 124.821C84.401 124.662 85.5648 125.49 85.8408 126.669C85.921 126.965 85.9325 127.272 85.8748 127.571C85.8171 127.871 85.6913 128.157 85.505 128.412C85.3651 128.597 85.184 128.755 84.9728 128.875C84.7615 128.996 84.5247 129.077 84.2768 129.113C84.1854 129.125 84.0931 129.13 84.0008 129.13ZM83.5408 125.209H83.32C83.1343 125.236 82.9568 125.297 82.7986 125.388C82.6404 125.478 82.5047 125.596 82.4 125.735C82.2496 125.946 82.1485 126.181 82.1026 126.427C82.0568 126.673 82.0672 126.925 82.1332 127.167C82.3678 128.134 83.2924 128.824 84.1894 128.697C84.3756 128.671 84.5537 128.611 84.7121 128.52C84.8705 128.43 85.0059 128.311 85.1094 128.171C85.2619 127.962 85.3643 127.727 85.4102 127.481C85.4561 127.236 85.4445 126.984 85.3762 126.743C85.3033 126.343 85.0833 125.976 84.7505 125.698C84.4177 125.421 83.9907 125.249 83.5362 125.209H83.5408Z" fill="#263238"/>
<path d="M79.4652 94.2498L58.342 97.4771C56.962 97.6892 56.042 98.7011 56.2628 99.7292L58.986 111.361L59.0596 111.663L60.481 117.742L64.46 112.773L83.1452 109.917C84.5252 109.705 85.4452 108.693 85.2198 107.669L82.4 95.7308C82.1746 94.7026 80.8544 94.0376 79.4652 94.2498Z" fill="white"/>
<path d="M60.3614 118.244L56.0374 99.77C55.9804 99.5205 55.9815 99.2632 56.0409 99.0141C56.1002 98.765 56.2164 98.5294 56.3824 98.3216C56.6076 98.043 56.8933 97.8071 57.2227 97.6277C57.5521 97.4484 57.9186 97.3292 58.3006 97.2771L79.4284 94.0498C80.9326 93.8214 82.377 94.5558 82.6484 95.6818L85.4406 107.62C85.4971 107.869 85.496 108.125 85.4375 108.373C85.379 108.621 85.2642 108.857 85.1002 109.064C84.8741 109.343 84.5877 109.58 84.2576 109.76C83.9275 109.94 83.5603 110.06 83.1774 110.113L64.5888 112.948L60.3614 118.244ZM79.985 94.4171C79.8307 94.4169 79.6768 94.4292 79.525 94.4538L58.3972 97.6811C58.0753 97.7236 57.7663 97.8227 57.4882 97.9727C57.2102 98.1226 56.9687 98.3203 56.778 98.5542C56.6485 98.7163 56.5576 98.9001 56.5109 99.0944C56.4643 99.2888 56.4628 99.4895 56.5066 99.6843L60.619 117.228L64.3358 112.573L83.113 109.717C83.7513 109.624 84.3219 109.31 84.7 108.844C84.83 108.681 84.9214 108.497 84.9688 108.302C85.0163 108.107 85.0187 107.905 84.976 107.71L82.1792 95.7757C82.0044 94.9719 81.0614 94.4171 79.985 94.4171Z" fill="#263238"/>
<path d="M77.9517 101.239C77.9656 101.077 77.9516 100.915 77.9103 100.757V100.668C77.5515 99.1254 75.5735 98.138 73.4989 98.4522C71.8659 98.7011 70.6607 99.6762 70.3939 100.847C69.9375 100.319 69.3226 99.9158 68.6196 99.6835C67.9167 99.4511 67.1542 99.3991 66.4195 99.5334C64.3449 99.8516 62.9557 101.357 63.3145 102.895C63.3145 102.895 63.2593 104.213 66.7829 106.127C69.6763 107.702 72.1189 108.983 72.1649 108.93C72.2247 108.958 73.9819 107.053 76.0473 104.715C76.8531 103.877 77.4644 102.907 77.8459 101.859C77.8954 101.718 77.9293 101.573 77.9471 101.427C77.9438 101.364 77.9453 101.301 77.9517 101.239Z" fill="#00B4D8"/>
<path d="M72.1281 109.13C72.0972 109.128 72.0672 109.119 72.0407 109.105C71.6129 108.979 70.4261 108.371 66.6403 106.31C63.2915 104.487 63.0753 103.148 63.0615 102.928C62.9846 102.571 62.9894 102.204 63.0755 101.849C63.1617 101.493 63.3274 101.157 63.5629 100.859C63.8933 100.455 64.3105 100.113 64.7905 99.8529C65.2705 99.5924 65.8038 99.4186 66.3597 99.3416C67.0618 99.2229 67.786 99.259 68.4686 99.4469C69.1512 99.6347 69.7713 99.9684 70.2743 100.419C70.5454 99.8472 70.9792 99.3478 71.5331 98.9695C72.087 98.5911 72.7422 98.3468 73.4345 98.2604C75.6287 97.9259 77.7263 98.9908 78.1127 100.635V100.7C78.1594 100.884 78.1765 101.072 78.1633 101.259C78.1664 101.324 78.1587 101.388 78.1403 101.451C78.1211 101.61 78.0857 101.767 78.0345 101.92C77.641 102.991 77.016 103.983 76.1945 104.841C73.5127 107.885 72.6387 108.811 72.2937 109.056C72.2784 109.076 72.2576 109.091 72.2334 109.101C72.2092 109.111 72.1824 109.115 72.1557 109.113L72.1281 109.13ZM67.1785 99.664C66.9333 99.6625 66.6884 99.6817 66.4471 99.7211C65.951 99.7858 65.4746 99.9383 65.0463 100.17C64.618 100.401 64.2465 100.706 63.9539 101.067C63.752 101.322 63.6101 101.61 63.5366 101.914C63.4631 102.218 63.4595 102.533 63.5261 102.838V102.887C63.5261 102.887 63.5675 104.132 66.8841 105.939C69.5429 107.383 71.6037 108.456 72.1005 108.681C72.4777 108.322 73.9635 106.706 75.8449 104.572C76.6304 103.753 77.2288 102.807 77.6067 101.786C77.6511 101.652 77.6819 101.516 77.6987 101.378V101.21C77.7109 101.074 77.7001 100.936 77.6665 100.802C77.6619 100.781 77.6619 100.759 77.6665 100.737C77.3261 99.2723 75.4677 98.3502 73.5265 98.6521C72.0361 98.8765 70.8631 99.7741 70.6101 100.884C70.6042 100.91 70.5923 100.935 70.5754 100.957C70.5584 100.979 70.5366 100.998 70.5113 101.012C70.486 101.027 70.4577 101.036 70.4281 101.041C70.3984 101.046 70.3681 101.045 70.3387 101.039C70.31 101.035 70.2825 101.025 70.258 101.011C70.2335 100.997 70.2125 100.979 70.1961 100.957C69.8466 100.543 69.3901 100.21 68.865 99.9846C68.3399 99.7595 67.7615 99.6496 67.1785 99.664Z" fill="#263238"/>
<path d="M45.3654 101.998C45.3654 101.998 44.0406 98.3257 41.5612 99.2518C39.0818 100.178 42.9826 103.805 41.0138 103.985C39.045 104.164 35.71 102.083 33.5986 105.368C31.4872 108.652 34.7531 111.006 38.6263 110.921C42.4995 110.835 46.382 108.179 45.3654 101.998Z" fill="white"/>
<path d="M38.4193 111.125C36.1193 111.125 34.0999 110.309 33.2075 108.966C32.6969 108.212 32.3151 106.955 33.4007 105.27C35.0015 102.773 37.2969 103.23 39.1369 103.573C39.7362 103.719 40.3555 103.79 40.9769 103.785C41.2207 103.76 41.2759 103.679 41.2943 103.654C41.4599 103.422 41.2115 102.838 40.9723 102.23C40.5123 101.141 39.9097 99.6477 41.4553 99.0642C41.7306 98.9534 42.0294 98.8961 42.3316 98.8961C42.6339 98.8961 42.9327 98.9534 43.2079 99.0642C44.7489 99.6925 45.5355 101.843 45.5723 101.92V101.953C46.0553 104.874 45.4803 107.29 43.9163 108.938C43.259 109.615 42.4453 110.16 41.5303 110.534C40.6153 110.909 39.6202 111.104 38.6125 111.108L38.4193 111.125ZM36.9657 103.703C35.8157 103.703 34.6933 104.079 33.8009 105.47C33.0281 106.669 32.9591 107.808 33.5985 108.758C34.4357 109.982 36.4045 110.766 38.6217 110.717C39.5649 110.712 40.4959 110.528 41.3515 110.176C42.2072 109.824 42.9674 109.312 43.5805 108.677C45.0571 107.126 45.5953 104.829 45.1399 102.034C45.0663 101.843 44.3257 99.9537 43.0285 99.4273C42.8123 99.3385 42.5768 99.2925 42.3385 99.2925C42.1002 99.2925 41.8648 99.3385 41.6485 99.4273C40.5859 99.8353 40.8849 100.778 41.4185 102.079C41.7221 102.818 41.9843 103.458 41.6991 103.858C41.6242 103.953 41.5253 104.031 41.4103 104.087C41.2953 104.142 41.1674 104.173 41.0367 104.176C40.3629 104.192 39.6901 104.12 39.0403 103.96C38.361 103.81 37.6656 103.723 36.9657 103.703Z" fill="#263238"/>
<path d="M36.6852 105.478C36.5518 105.919 36.2252 106.22 35.9308 106.151C35.6364 106.082 35.5214 105.674 35.6594 105.233C35.7974 104.792 36.1194 104.486 36.4138 104.556C36.7082 104.625 36.8186 105.037 36.6852 105.478Z" fill="#263238"/>
<path d="M34.8406 106.192C34.7072 106.633 34.3806 106.935 34.0862 106.869C33.7918 106.804 33.6768 106.388 33.8102 105.947C33.9436 105.507 34.2702 105.205 34.5692 105.274C34.8682 105.343 34.974 105.739 34.8406 106.192Z" fill="#263238"/>
<path d="M35.9952 107.983C35.8618 108.424 35.5352 108.73 35.2408 108.66C34.9464 108.591 34.836 108.179 34.9694 107.738C35.1028 107.298 35.4294 106.996 35.7238 107.065C36.0182 107.134 36.1286 107.542 35.9952 107.983Z" fill="#263238"/>
<path d="M36.1883 110.496C36.1428 110.497 36.0982 110.485 36.0604 110.462C36.0226 110.44 35.9934 110.407 35.9767 110.37C35.9647 110.346 35.9583 110.32 35.9578 110.294C35.9573 110.267 35.9628 110.241 35.974 110.217C35.9852 110.192 36.0017 110.17 36.0228 110.152C36.0438 110.133 36.0688 110.119 36.0963 110.109C36.4803 109.966 36.8335 109.766 37.1405 109.517C37.1862 109.485 37.2443 109.469 37.3027 109.473C37.3612 109.477 37.4157 109.501 37.455 109.539C37.4944 109.578 37.5157 109.628 37.5145 109.68C37.5133 109.732 37.4898 109.782 37.4487 109.819C37.1033 110.101 36.7047 110.328 36.2711 110.488C36.2441 110.494 36.2162 110.497 36.1883 110.496Z" fill="#263238"/>
<path d="M37.8673 109.313C37.8174 109.314 37.7686 109.3 37.7293 109.272C37.7052 109.256 37.6848 109.236 37.6694 109.213C37.654 109.19 37.6439 109.165 37.6396 109.138C37.6354 109.111 37.637 109.084 37.6445 109.059C37.652 109.033 37.6652 109.008 37.6833 108.987C38.0352 108.572 38.3016 108.105 38.4699 107.608C38.6676 107.098 38.7451 106.559 38.6976 106.022C38.6501 105.485 38.4787 104.962 38.1939 104.487C38.1635 104.439 38.1552 104.383 38.1706 104.331C38.1861 104.278 38.2242 104.233 38.2767 104.205C38.3305 104.18 38.3927 104.174 38.4514 104.187C38.5101 104.201 38.561 104.233 38.5941 104.278C38.9083 104.804 39.0984 105.381 39.153 105.973C39.2076 106.566 39.1254 107.162 38.9115 107.726C38.728 108.269 38.4367 108.779 38.0513 109.232C38.0294 109.256 38.0016 109.277 37.9697 109.291C37.9379 109.305 37.9029 109.313 37.8673 109.313Z" fill="#263238"/>
</svg>
